<?xml version="1.0" encoding="UTF-8" standalone="no"?>
<!DOCTYPE svg PUBLIC "-//W3C//DTD SVG 1.1//EN"
 "http://www.w3.org/Graphics/SVG/1.1/DTD/svg11.dtd">
<!-- Generated by graphviz version 2.42.3 (20191010.1750)
 -->
<!-- Title: snakemake_dag Pages: 1 -->
<svg width="816pt" height="980pt"
 viewBox="0.00 0.00 816.43 980.00" xmlns="http://www.w3.org/2000/svg" xmlns:xlink="http://www.w3.org/1999/xlink">
<g id="graph0" class="graph" transform="scale(1 1) rotate(0) translate(4 976)">
<title>snakemake_dag</title>
<polygon fill="white" stroke="transparent" points="-4,4 -4,-976 812.43,-976 812.43,4 -4,4"/>
<!-- 0 -->
<g id="node1" class="node">
<title>0</title>
<path fill="none" stroke="#56d892" stroke-width="2" d="M443,-36C443,-36 413,-36 413,-36 407,-36 401,-30 401,-24 401,-24 401,-12 401,-12 401,-6 407,0 413,0 413,0 443,0 443,0 449,0 455,-6 455,-12 455,-12 455,-24 455,-24 455,-30 449,-36 443,-36"/>
<text text-anchor="middle" x="428" y="-15.5" font-family="sans" font-size="10.00">all</text>
</g>
<!-- 1 -->
<g id="node2" class="node">
<title>1</title>
<path fill="none" stroke="#56b1d8" stroke-width="2" d="M468,-540C468,-540 356,-540 356,-540 350,-540 344,-534 344,-528 344,-528 344,-516 344,-516 344,-510 350,-504 356,-504 356,-504 468,-504 468,-504 474,-504 480,-510 480,-516 480,-516 480,-528 480,-528 480,-534 474,-540 468,-540"/>
<text text-anchor="middle" x="412" y="-519.5" font-family="sans" font-size="10.00">zoomify_normalize_cool</text>
</g>
<!-- 1&#45;&gt;0 -->
<g id="edge1" class="edge">
<title>1&#45;&gt;0</title>
<path fill="none" stroke="grey" stroke-width="2" d="M442.8,-503.79C457.26,-494.58 473.93,-482.21 486,-468 514.57,-434.37 530,-423.13 530,-379 530,-379 530,-379 530,-305 530,-198.99 528.97,-165.49 479,-72 473.32,-61.37 464.9,-51.38 456.53,-43"/>
<polygon fill="grey" stroke="grey" stroke-width="2" points="458.91,-40.43 449.26,-36.07 454.08,-45.5 458.91,-40.43"/>
</g>
<!-- 12 -->
<g id="node13" class="node">
<title>12</title>
<path fill="none" stroke="#d87d56" stroke-width="2" d="M170,-324C170,-324 84,-324 84,-324 78,-324 72,-318 72,-312 72,-312 72,-300 72,-300 72,-294 78,-288 84,-288 84,-288 170,-288 170,-288 176,-288 182,-294 182,-300 182,-300 182,-312 182,-312 182,-318 176,-324 170,-324"/>
<text text-anchor="middle" x="127" y="-303.5" font-family="sans" font-size="10.00">serpentine_binning</text>
</g>
<!-- 1&#45;&gt;12 -->
<g id="edge22" class="edge">
<title>1&#45;&gt;12</title>
<path fill="none" stroke="grey" stroke-width="2" d="M343.83,-512C286.75,-503.21 211.01,-488.2 188,-468 148.51,-433.33 134.49,-370.34 129.58,-334.29"/>
<polygon fill="grey" stroke="grey" stroke-width="2" points="133.01,-333.53 128.33,-324.02 126.07,-334.37 133.01,-333.53"/>
</g>
<!-- 14 -->
<g id="node15" class="node">
<title>14</title>
<path fill="none" stroke="#56d8a9" stroke-width="2" d="M328,-324C328,-324 218,-324 218,-324 212,-324 206,-318 206,-312 206,-312 206,-300 206,-300 206,-294 212,-288 218,-288 218,-288 328,-288 328,-288 334,-288 340,-294 340,-300 340,-300 340,-312 340,-312 340,-318 334,-324 328,-324"/>
<text text-anchor="middle" x="273" y="-303.5" font-family="sans" font-size="10.00">quantify_pattern_scores</text>
</g>
<!-- 1&#45;&gt;14 -->
<g id="edge25" class="edge">
<title>1&#45;&gt;14</title>
<path fill="none" stroke="grey" stroke-width="2" d="M343.85,-512.78C289.72,-504.69 220.33,-490.27 203,-468 170.08,-425.69 215.45,-365.51 247.06,-332"/>
<polygon fill="grey" stroke="grey" stroke-width="2" points="249.9,-334.09 254.35,-324.47 244.88,-329.22 249.9,-334.09"/>
</g>
<!-- 16 -->
<g id="node17" class="node">
<title>16</title>
<path fill="none" stroke="#78d856" stroke-width="2" d="M448,-468C448,-468 376,-468 376,-468 370,-468 364,-462 364,-456 364,-456 364,-444 364,-444 364,-438 370,-432 376,-432 376,-432 448,-432 448,-432 454,-432 460,-438 460,-444 460,-444 460,-456 460,-456 460,-462 454,-468 448,-468"/>
<text text-anchor="middle" x="412" y="-447.5" font-family="sans" font-size="10.00">merge_matrices</text>
</g>
<!-- 1&#45;&gt;16 -->
<g id="edge28" class="edge">
<title>1&#45;&gt;16</title>
<path fill="none" stroke="grey" stroke-width="2" d="M412,-503.7C412,-495.98 412,-486.71 412,-478.11"/>
<polygon fill="grey" stroke="grey" stroke-width="2" points="415.5,-478.1 412,-468.1 408.5,-478.1 415.5,-478.1"/>
</g>
<!-- 17 -->
<g id="node18" class="node">
<title>17</title>
<path fill="none" stroke="#568ad8" stroke-width="2" d="M334,-468C334,-468 224,-468 224,-468 218,-468 212,-462 212,-456 212,-456 212,-444 212,-444 212,-438 218,-432 224,-432 224,-432 334,-432 334,-432 340,-432 346,-438 346,-444 346,-444 346,-456 346,-456 346,-462 340,-468 334,-468"/>
<text text-anchor="middle" x="279" y="-447.5" font-family="sans" font-size="10.00">find_subsampling_value</text>
</g>
<!-- 1&#45;&gt;17 -->
<g id="edge29" class="edge">
<title>1&#45;&gt;17</title>
<path fill="none" stroke="grey" stroke-width="2" d="M379.46,-503.88C361.75,-494.55 339.65,-482.92 320.68,-472.94"/>
<polygon fill="grey" stroke="grey" stroke-width="2" points="322.14,-469.75 311.66,-468.19 318.88,-475.94 322.14,-469.75"/>
</g>
<!-- 21 -->
<g id="node22" class="node">
<title>21</title>
<path fill="none" stroke="#d8a456" stroke-width="2" d="M459,-324C459,-324 391,-324 391,-324 385,-324 379,-318 379,-312 379,-312 379,-300 379,-300 379,-294 385,-288 391,-288 391,-288 459,-288 459,-288 465,-288 471,-294 471,-300 471,-300 471,-312 471,-312 471,-318 465,-324 459,-324"/>
<text text-anchor="middle" x="425" y="-303.5" font-family="sans" font-size="10.00">pattern_change</text>
</g>
<!-- 1&#45;&gt;21 -->
<g id="edge36" class="edge">
<title>1&#45;&gt;21</title>
<path fill="none" stroke="grey" stroke-width="2" d="M438.58,-503.91C450.24,-494.81 462.69,-482.49 469,-468 474.61,-455.12 475.12,-382.32 467,-360 463.33,-349.91 456.91,-340.26 450.19,-332.02"/>
<polygon fill="grey" stroke="grey" stroke-width="2" points="452.66,-329.53 443.45,-324.3 447.39,-334.13 452.66,-329.53"/>
</g>
<!-- 2 -->
<g id="node3" class="node">
<title>2</title>
<path fill="none" stroke="#68d856" stroke-width="2" d="M538.5,-612C538.5,-612 481.5,-612 481.5,-612 475.5,-612 469.5,-606 469.5,-600 469.5,-600 469.5,-588 469.5,-588 469.5,-582 475.5,-576 481.5,-576 481.5,-576 538.5,-576 538.5,-576 544.5,-576 550.5,-582 550.5,-588 550.5,-588 550.5,-600 550.5,-600 550.5,-606 544.5,-612 538.5,-612"/>
<text text-anchor="middle" x="510" y="-591.5" font-family="sans" font-size="10.00">pairs_to_cool</text>
</g>
<!-- 2&#45;&gt;1 -->
<g id="edge10" class="edge">
<title>2&#45;&gt;1</title>
<path fill="none" stroke="grey" stroke-width="2" d="M486.03,-575.88C473.45,-566.89 457.87,-555.76 444.25,-546.03"/>
<polygon fill="grey" stroke="grey" stroke-width="2" points="446.24,-543.15 436.07,-540.19 442.17,-548.85 446.24,-543.15"/>
</g>
<!-- 32 -->
<g id="node33" class="node">
<title>32</title>
<path fill="none" stroke="#5663d8" stroke-width="2" d="M757.5,-396C757.5,-396 646.5,-396 646.5,-396 640.5,-396 634.5,-390 634.5,-384 634.5,-384 634.5,-372 634.5,-372 634.5,-366 640.5,-360 646.5,-360 646.5,-360 757.5,-360 757.5,-360 763.5,-360 769.5,-366 769.5,-372 769.5,-372 769.5,-384 769.5,-384 769.5,-390 763.5,-396 757.5,-396"/>
<text text-anchor="middle" x="702" y="-375.5" font-family="sans" font-size="10.00">condition_merged_cools</text>
</g>
<!-- 2&#45;&gt;32 -->
<g id="edge44" class="edge">
<title>2&#45;&gt;32</title>
<path fill="none" stroke="grey" stroke-width="2" d="M550.62,-588.17C583.64,-582.2 629.29,-568.99 658,-540 693.66,-503.99 701.13,-442.03 702.29,-406.39"/>
<polygon fill="grey" stroke="grey" stroke-width="2" points="705.79,-406.29 702.47,-396.23 698.79,-406.17 705.79,-406.29"/>
</g>
<!-- 34 -->
<g id="node35" class="node">
<title>34</title>
<path fill="none" stroke="#d89556" stroke-width="2" d="M637,-540C637,-540 539,-540 539,-540 533,-540 527,-534 527,-528 527,-528 527,-516 527,-516 527,-510 533,-504 539,-504 539,-504 637,-504 637,-504 643,-504 649,-510 649,-516 649,-516 649,-528 649,-528 649,-534 643,-540 637,-540"/>
<text text-anchor="middle" x="588" y="-519.5" font-family="sans" font-size="10.00">get_merged_contacts</text>
</g>
<!-- 2&#45;&gt;34 -->
<g id="edge47" class="edge">
<title>2&#45;&gt;34</title>
<path fill="none" stroke="grey" stroke-width="2" d="M529.28,-575.7C538.92,-567.05 550.73,-556.45 561.23,-547.03"/>
<polygon fill="grey" stroke="grey" stroke-width="2" points="563.84,-549.39 568.94,-540.1 559.16,-544.18 563.84,-549.39"/>
</g>
<!-- 3 -->
<g id="node4" class="node">
<title>3</title>
<path fill="none" stroke="#d88d56" stroke-width="2" d="M379.5,-828C379.5,-828 326.5,-828 326.5,-828 320.5,-828 314.5,-822 314.5,-816 314.5,-816 314.5,-804 314.5,-804 314.5,-798 320.5,-792 326.5,-792 326.5,-792 379.5,-792 379.5,-792 385.5,-792 391.5,-798 391.5,-804 391.5,-804 391.5,-816 391.5,-816 391.5,-822 385.5,-828 379.5,-828"/>
<text text-anchor="middle" x="353" y="-807.5" font-family="sans" font-size="10.00">chrom_sizes</text>
</g>
<!-- 3&#45;&gt;2 -->
<g id="edge11" class="edge">
<title>3&#45;&gt;2</title>
<path fill="none" stroke="grey" stroke-width="2" d="M391.68,-795.25C431.36,-780.99 487.75,-760.18 491,-756 521.06,-717.34 519.03,-656.85 514.65,-622.07"/>
<polygon fill="grey" stroke="grey" stroke-width="2" points="518.12,-621.57 513.25,-612.16 511.18,-622.55 518.12,-621.57"/>
</g>
<!-- 4 -->
<g id="node5" class="node">
<title>4</title>
<path fill="none" stroke="#d8bc56" stroke-width="2" d="M386,-972C386,-972 326,-972 326,-972 320,-972 314,-966 314,-960 314,-960 314,-948 314,-948 314,-942 320,-936 326,-936 326,-936 386,-936 386,-936 392,-936 398,-942 398,-948 398,-948 398,-960 398,-960 398,-966 392,-972 386,-972"/>
<text text-anchor="middle" x="356" y="-951.5" font-family="sans" font-size="10.00">filter_genome</text>
</g>
<!-- 4&#45;&gt;3 -->
<g id="edge13" class="edge">
<title>4&#45;&gt;3</title>
<path fill="none" stroke="grey" stroke-width="2" d="M355.64,-935.87C355.13,-911.67 354.19,-867.21 353.58,-838.39"/>
<polygon fill="grey" stroke="grey" stroke-width="2" points="357.07,-838.11 353.36,-828.19 350.08,-838.26 357.07,-838.11"/>
</g>
<!-- 5 -->
<g id="node6" class="node">
<title>5</title>
<path fill="none" stroke="#9fd856" stroke-width="2" d="M316,-900C316,-900 248,-900 248,-900 242,-900 236,-894 236,-888 236,-888 236,-876 236,-876 236,-870 242,-864 248,-864 248,-864 316,-864 316,-864 322,-864 328,-870 328,-876 328,-876 328,-888 328,-888 328,-894 322,-900 316,-900"/>
<text text-anchor="middle" x="282" y="-879.5" font-family="sans" font-size="10.00">digest_genome</text>
</g>
<!-- 4&#45;&gt;5 -->
<g id="edge15" class="edge">
<title>4&#45;&gt;5</title>
<path fill="none" stroke="grey" stroke-width="2" d="M337.71,-935.7C328.57,-927.05 317.36,-916.45 307.4,-907.03"/>
<polygon fill="grey" stroke="grey" stroke-width="2" points="309.75,-904.43 300.08,-900.1 304.94,-909.52 309.75,-904.43"/>
</g>
<!-- 9 -->
<g id="node10" class="node">
<title>9</title>
<path fill="none" stroke="#56b9d8" stroke-width="2" d="M437.5,-900C437.5,-900 396.5,-900 396.5,-900 390.5,-900 384.5,-894 384.5,-888 384.5,-888 384.5,-876 384.5,-876 384.5,-870 390.5,-864 396.5,-864 396.5,-864 437.5,-864 437.5,-864 443.5,-864 449.5,-870 449.5,-876 449.5,-876 449.5,-888 449.5,-888 449.5,-894 443.5,-900 437.5,-900"/>
<text text-anchor="middle" x="417" y="-879.5" font-family="sans" font-size="10.00">bt2_index</text>
</g>
<!-- 4&#45;&gt;9 -->
<g id="edge20" class="edge">
<title>4&#45;&gt;9</title>
<path fill="none" stroke="grey" stroke-width="2" d="M371.08,-935.7C378.39,-927.3 387.31,-917.07 395.34,-907.86"/>
<polygon fill="grey" stroke="grey" stroke-width="2" points="398.16,-909.94 402.09,-900.1 392.89,-905.34 398.16,-909.94"/>
</g>
<!-- 5&#45;&gt;3 -->
<g id="edge14" class="edge">
<title>5&#45;&gt;3</title>
<path fill="none" stroke="grey" stroke-width="2" d="M299.55,-863.7C308.23,-855.14 318.86,-844.66 328.35,-835.3"/>
<polygon fill="grey" stroke="grey" stroke-width="2" points="330.99,-837.62 335.65,-828.1 326.07,-832.63 330.99,-837.62"/>
</g>
<!-- 26 -->
<g id="node27" class="node">
<title>26</title>
<path fill="none" stroke="#56d85b" stroke-width="2" d="M358,-612C358,-612 206,-612 206,-612 200,-612 194,-606 194,-600 194,-600 194,-588 194,-588 194,-582 200,-576 206,-576 206,-576 358,-576 358,-576 364,-576 370,-582 370,-588 370,-588 370,-600 370,-600 370,-606 364,-612 358,-612"/>
<text text-anchor="middle" x="282" y="-591.5" font-family="sans" font-size="10.00">compute_genomic_distance_law</text>
</g>
<!-- 5&#45;&gt;26 -->
<g id="edge40" class="edge">
<title>5&#45;&gt;26</title>
<path fill="none" stroke="grey" stroke-width="2" d="M282,-863.97C282,-816.29 282,-681.18 282,-622.63"/>
<polygon fill="grey" stroke="grey" stroke-width="2" points="285.5,-622.31 282,-612.31 278.5,-622.31 285.5,-622.31"/>
</g>
<!-- 6 -->
<g id="node7" class="node">
<title>6</title>
<path fill="none" stroke="#56d86b" stroke-width="2" d="M447.5,-684C447.5,-684 382.5,-684 382.5,-684 376.5,-684 370.5,-678 370.5,-672 370.5,-672 370.5,-660 370.5,-660 370.5,-654 376.5,-648 382.5,-648 382.5,-648 447.5,-648 447.5,-648 453.5,-648 459.5,-654 459.5,-660 459.5,-660 459.5,-672 459.5,-672 459.5,-678 453.5,-684 447.5,-684"/>
<text text-anchor="middle" x="415" y="-663.5" font-family="sans" font-size="10.00">generate_pairs</text>
</g>
<!-- 6&#45;&gt;2 -->
<g id="edge12" class="edge">
<title>6&#45;&gt;2</title>
<path fill="none" stroke="grey" stroke-width="2" d="M438.48,-647.7C450.56,-638.8 465.45,-627.82 478.52,-618.2"/>
<polygon fill="grey" stroke="grey" stroke-width="2" points="480.81,-620.85 486.79,-612.1 476.66,-615.22 480.81,-620.85"/>
</g>
<!-- 6&#45;&gt;26 -->
<g id="edge39" class="edge">
<title>6&#45;&gt;26</title>
<path fill="none" stroke="grey" stroke-width="2" d="M382.46,-647.88C364.75,-638.55 342.65,-626.92 323.68,-616.94"/>
<polygon fill="grey" stroke="grey" stroke-width="2" points="325.14,-613.75 314.66,-612.19 321.88,-619.94 325.14,-613.75"/>
</g>
<!-- 7 -->
<g id="node8" class="node">
<title>7</title>
<path fill="none" stroke="#bed856" stroke-width="2" d="M470,-756C470,-756 360,-756 360,-756 354,-756 348,-750 348,-744 348,-744 348,-732 348,-732 348,-726 354,-720 360,-720 360,-720 470,-720 470,-720 476,-720 482,-726 482,-732 482,-732 482,-744 482,-744 482,-750 476,-756 470,-756"/>
<text text-anchor="middle" x="415" y="-735.5" font-family="sans" font-size="10.00">merge_split_alignments</text>
</g>
<!-- 7&#45;&gt;6 -->
<g id="edge16" class="edge">
<title>7&#45;&gt;6</title>
<path fill="none" stroke="grey" stroke-width="2" d="M415,-719.7C415,-711.98 415,-702.71 415,-694.11"/>
<polygon fill="grey" stroke="grey" stroke-width="2" points="418.5,-694.1 415,-684.1 411.5,-694.1 418.5,-694.1"/>
</g>
<!-- 8 -->
<g id="node9" class="node">
<title>8</title>
<path fill="none" stroke="#ced856" stroke-width="2" d="M484,-828C484,-828 422,-828 422,-828 416,-828 410,-822 410,-816 410,-816 410,-804 410,-804 410,-798 416,-792 422,-792 422,-792 484,-792 484,-792 490,-792 496,-798 496,-804 496,-804 496,-816 496,-816 496,-822 490,-828 484,-828"/>
<text text-anchor="middle" x="453" y="-807.5" font-family="sans" font-size="10.00">split_align_hic</text>
</g>
<!-- 8&#45;&gt;7 -->
<g id="edge17" class="edge">
<title>8&#45;&gt;7</title>
<path fill="none" stroke="grey" stroke-width="2" d="M443.61,-791.7C439.24,-783.64 433.94,-773.89 429.1,-764.98"/>
<polygon fill="grey" stroke="grey" stroke-width="2" points="432.13,-763.22 424.29,-756.1 425.98,-766.56 432.13,-763.22"/>
</g>
<!-- 9&#45;&gt;8 -->
<g id="edge19" class="edge">
<title>9&#45;&gt;8</title>
<path fill="none" stroke="grey" stroke-width="2" d="M425.9,-863.7C430,-855.73 434.95,-846.1 439.49,-837.26"/>
<polygon fill="grey" stroke="grey" stroke-width="2" points="442.74,-838.6 444.2,-828.1 436.52,-835.4 442.74,-838.6"/>
</g>
<!-- 10 -->
<g id="node11" class="node">
<title>10</title>
<path fill="none" stroke="#56d8c1" stroke-width="2" d="M542.5,-900C542.5,-900 479.5,-900 479.5,-900 473.5,-900 467.5,-894 467.5,-888 467.5,-888 467.5,-876 467.5,-876 467.5,-870 473.5,-864 479.5,-864 479.5,-864 542.5,-864 542.5,-864 548.5,-864 554.5,-870 554.5,-876 554.5,-876 554.5,-888 554.5,-888 554.5,-894 548.5,-900 542.5,-900"/>
<text text-anchor="middle" x="511" y="-879.5" font-family="sans" font-size="10.00">split_hic_fastq</text>
</g>
<!-- 10&#45;&gt;8 -->
<g id="edge18" class="edge">
<title>10&#45;&gt;8</title>
<path fill="none" stroke="grey" stroke-width="2" d="M496.66,-863.7C489.71,-855.3 481.23,-845.07 473.6,-835.86"/>
<polygon fill="grey" stroke="grey" stroke-width="2" points="476.25,-833.57 467.17,-828.1 470.86,-838.04 476.25,-833.57"/>
</g>
<!-- 11 -->
<g id="node12" class="node">
<title>11</title>
<path fill="none" stroke="#80d856" stroke-width="2" d="M543,-972C543,-972 479,-972 479,-972 473,-972 467,-966 467,-960 467,-960 467,-948 467,-948 467,-942 473,-936 479,-936 479,-936 543,-936 543,-936 549,-936 555,-942 555,-948 555,-948 555,-960 555,-960 555,-966 549,-972 543,-972"/>
<text text-anchor="middle" x="511" y="-951.5" font-family="sans" font-size="10.00">combine_units</text>
</g>
<!-- 11&#45;&gt;10 -->
<g id="edge21" class="edge">
<title>11&#45;&gt;10</title>
<path fill="none" stroke="grey" stroke-width="2" d="M511,-935.7C511,-927.98 511,-918.71 511,-910.11"/>
<polygon fill="grey" stroke="grey" stroke-width="2" points="514.5,-910.1 511,-900.1 507.5,-910.1 514.5,-910.1"/>
</g>
<!-- 12&#45;&gt;0 -->
<g id="edge3" class="edge">
<title>12&#45;&gt;0</title>
<path fill="none" stroke="grey" stroke-width="2" d="M117.58,-287.94C102.04,-257.31 75.12,-191.76 100,-144 154.89,-38.66 316.34,-21.27 390.26,-18.96"/>
<polygon fill="grey" stroke="grey" stroke-width="2" points="390.59,-22.46 400.51,-18.72 390.43,-15.46 390.59,-22.46"/>
</g>
<!-- 13 -->
<g id="node14" class="node">
<title>13</title>
<path fill="none" stroke="#5692d8" stroke-width="2" d="M215,-180C215,-180 121,-180 121,-180 115,-180 109,-174 109,-168 109,-168 109,-156 109,-156 109,-150 115,-144 121,-144 121,-144 215,-144 215,-144 221,-144 227,-150 227,-156 227,-156 227,-168 227,-168 227,-174 221,-180 215,-180"/>
<text text-anchor="middle" x="168" y="-159.5" font-family="sans" font-size="10.00">plot_patterns_scores</text>
</g>
<!-- 13&#45;&gt;0 -->
<g id="edge5" class="edge">
<title>13&#45;&gt;0</title>
<path fill="none" stroke="grey" stroke-width="2" d="M178.33,-143.96C191.39,-123.84 215.75,-90.74 245,-72 290.19,-43.05 351.6,-29.51 390.53,-23.47"/>
<polygon fill="grey" stroke="grey" stroke-width="2" points="391.49,-26.87 400.88,-21.96 390.48,-19.94 391.49,-26.87"/>
</g>
<!-- 14&#45;&gt;13 -->
<g id="edge23" class="edge">
<title>14&#45;&gt;13</title>
<path fill="none" stroke="grey" stroke-width="2" d="M205.95,-288.3C173.08,-278.61 138.53,-265.66 129,-252 115.13,-232.11 129.13,-206.5 144.07,-187.86"/>
<polygon fill="grey" stroke="grey" stroke-width="2" points="146.87,-189.97 150.68,-180.09 141.54,-185.44 146.87,-189.97"/>
</g>
<!-- 15 -->
<g id="node16" class="node">
<title>15</title>
<path fill="none" stroke="#56d89a" stroke-width="2" d="M446.5,-396C446.5,-396 377.5,-396 377.5,-396 371.5,-396 365.5,-390 365.5,-384 365.5,-384 365.5,-372 365.5,-372 365.5,-366 371.5,-360 377.5,-360 377.5,-360 446.5,-360 446.5,-360 452.5,-360 458.5,-366 458.5,-372 458.5,-372 458.5,-384 458.5,-384 458.5,-390 452.5,-396 446.5,-396"/>
<text text-anchor="middle" x="412" y="-375.5" font-family="sans" font-size="10.00">detect_patterns</text>
</g>
<!-- 15&#45;&gt;14 -->
<g id="edge24" class="edge">
<title>15&#45;&gt;14</title>
<path fill="none" stroke="grey" stroke-width="2" d="M378,-359.88C359.4,-350.51 336.17,-338.81 316.29,-328.8"/>
<polygon fill="grey" stroke="grey" stroke-width="2" points="317.64,-325.56 307.13,-324.19 314.49,-331.81 317.64,-325.56"/>
</g>
<!-- 15&#45;&gt;21 -->
<g id="edge35" class="edge">
<title>15&#45;&gt;21</title>
<path fill="none" stroke="grey" stroke-width="2" d="M415.21,-359.7C416.65,-351.98 418.37,-342.71 419.96,-334.11"/>
<polygon fill="grey" stroke="grey" stroke-width="2" points="423.44,-334.58 421.82,-324.1 416.56,-333.3 423.44,-334.58"/>
</g>
<!-- 16&#45;&gt;15 -->
<g id="edge27" class="edge">
<title>16&#45;&gt;15</title>
<path fill="none" stroke="grey" stroke-width="2" d="M412,-431.7C412,-423.98 412,-414.71 412,-406.11"/>
<polygon fill="grey" stroke="grey" stroke-width="2" points="415.5,-406.1 412,-396.1 408.5,-406.1 415.5,-406.1"/>
</g>
<!-- 17&#45;&gt;14 -->
<g id="edge26" class="edge">
<title>17&#45;&gt;14</title>
<path fill="none" stroke="grey" stroke-width="2" d="M278.28,-431.87C277.25,-407.67 275.38,-363.21 274.16,-334.39"/>
<polygon fill="grey" stroke="grey" stroke-width="2" points="277.65,-334.03 273.73,-324.19 270.65,-334.33 277.65,-334.03"/>
</g>
<!-- 18 -->
<g id="node19" class="node">
<title>18</title>
<path fill="none" stroke="#a7d856" stroke-width="2" d="M346,-108C346,-108 266,-108 266,-108 260,-108 254,-102 254,-96 254,-96 254,-84 254,-84 254,-78 260,-72 266,-72 266,-72 346,-72 346,-72 352,-72 358,-78 358,-84 358,-84 358,-96 358,-96 358,-102 352,-108 346,-108"/>
<text text-anchor="middle" x="306" y="-87.5" font-family="sans" font-size="10.00">go_enrich_change</text>
</g>
<!-- 18&#45;&gt;0 -->
<g id="edge4" class="edge">
<title>18&#45;&gt;0</title>
<path fill="none" stroke="grey" stroke-width="2" d="M335.84,-71.88C352.78,-62.16 374.11,-49.92 391.97,-39.67"/>
<polygon fill="grey" stroke="grey" stroke-width="2" points="394.03,-42.53 400.96,-34.51 390.55,-36.46 394.03,-42.53"/>
</g>
<!-- 19 -->
<g id="node20" class="node">
<title>19</title>
<path fill="none" stroke="#d86656" stroke-width="2" d="M345.5,-180C345.5,-180 260.5,-180 260.5,-180 254.5,-180 248.5,-174 248.5,-168 248.5,-168 248.5,-156 248.5,-156 248.5,-150 254.5,-144 260.5,-144 260.5,-144 345.5,-144 345.5,-144 351.5,-144 357.5,-150 357.5,-156 357.5,-156 357.5,-168 357.5,-168 357.5,-174 351.5,-180 345.5,-180"/>
<text text-anchor="middle" x="303" y="-159.5" font-family="sans" font-size="10.00">bed_closest_genes</text>
</g>
<!-- 19&#45;&gt;18 -->
<g id="edge30" class="edge">
<title>19&#45;&gt;18</title>
<path fill="none" stroke="grey" stroke-width="2" d="M303.74,-143.7C304.07,-135.98 304.47,-126.71 304.84,-118.11"/>
<polygon fill="grey" stroke="grey" stroke-width="2" points="308.34,-118.25 305.27,-108.1 301.34,-117.95 308.34,-118.25"/>
</g>
<!-- 20 -->
<g id="node21" class="node">
<title>20</title>
<path fill="none" stroke="#59d856" stroke-width="2" d="M344,-252C344,-252 252,-252 252,-252 246,-252 240,-246 240,-240 240,-240 240,-228 240,-228 240,-222 246,-216 252,-216 252,-216 344,-216 344,-216 350,-216 356,-222 356,-228 356,-228 356,-240 356,-240 356,-246 350,-252 344,-252"/>
<text text-anchor="middle" x="298" y="-231.5" font-family="sans" font-size="10.00">loop_change_to_bed</text>
</g>
<!-- 20&#45;&gt;19 -->
<g id="edge33" class="edge">
<title>20&#45;&gt;19</title>
<path fill="none" stroke="grey" stroke-width="2" d="M299.24,-215.7C299.79,-207.98 300.45,-198.71 301.06,-190.11"/>
<polygon fill="grey" stroke="grey" stroke-width="2" points="304.56,-190.33 301.78,-180.1 297.57,-189.83 304.56,-190.33"/>
</g>
<!-- 21&#45;&gt;20 -->
<g id="edge34" class="edge">
<title>21&#45;&gt;20</title>
<path fill="none" stroke="grey" stroke-width="2" d="M393.93,-287.88C377.17,-278.64 356.29,-267.13 338.3,-257.21"/>
<polygon fill="grey" stroke="grey" stroke-width="2" points="339.63,-253.95 329.19,-252.19 336.26,-260.08 339.63,-253.95"/>
</g>
<!-- 23 -->
<g id="node24" class="node">
<title>23</title>
<path fill="none" stroke="#b6d856" stroke-width="2" d="M489.5,-252C489.5,-252 386.5,-252 386.5,-252 380.5,-252 374.5,-246 374.5,-240 374.5,-240 374.5,-228 374.5,-228 374.5,-222 380.5,-216 386.5,-216 386.5,-216 489.5,-216 489.5,-216 495.5,-216 501.5,-222 501.5,-228 501.5,-228 501.5,-240 501.5,-240 501.5,-246 495.5,-252 489.5,-252"/>
<text text-anchor="middle" x="438" y="-231.5" font-family="sans" font-size="10.00">border_change_to_bed</text>
</g>
<!-- 21&#45;&gt;23 -->
<g id="edge37" class="edge">
<title>21&#45;&gt;23</title>
<path fill="none" stroke="grey" stroke-width="2" d="M428.21,-287.7C429.65,-279.98 431.37,-270.71 432.96,-262.11"/>
<polygon fill="grey" stroke="grey" stroke-width="2" points="436.44,-262.58 434.82,-252.1 429.56,-261.3 436.44,-262.58"/>
</g>
<!-- 22 -->
<g id="node23" class="node">
<title>22</title>
<path fill="none" stroke="#56a2d8" stroke-width="2" d="M209.5,-252C209.5,-252 150.5,-252 150.5,-252 144.5,-252 138.5,-246 138.5,-240 138.5,-240 138.5,-228 138.5,-228 138.5,-222 144.5,-216 150.5,-216 150.5,-216 209.5,-216 209.5,-216 215.5,-216 221.5,-222 221.5,-228 221.5,-228 221.5,-240 221.5,-240 221.5,-246 215.5,-252 209.5,-252"/>
<text text-anchor="middle" x="180" y="-231.5" font-family="sans" font-size="10.00">annot_to_bed</text>
</g>
<!-- 22&#45;&gt;19 -->
<g id="edge32" class="edge">
<title>22&#45;&gt;19</title>
<path fill="none" stroke="grey" stroke-width="2" d="M210.09,-215.88C226.32,-206.64 246.54,-195.13 263.97,-185.21"/>
<polygon fill="grey" stroke="grey" stroke-width="2" points="265.84,-188.18 272.8,-180.19 262.37,-182.09 265.84,-188.18"/>
</g>
<!-- 23&#45;&gt;19 -->
<g id="edge31" class="edge">
<title>23&#45;&gt;19</title>
<path fill="none" stroke="grey" stroke-width="2" d="M404.98,-215.88C386.92,-206.51 364.35,-194.81 345.05,-184.8"/>
<polygon fill="grey" stroke="grey" stroke-width="2" points="346.64,-181.69 336.15,-180.19 343.42,-187.9 346.64,-181.69"/>
</g>
<!-- 24 -->
<g id="node25" class="node">
<title>24</title>
<path fill="none" stroke="#56d873" stroke-width="2" d="M458,-108C458,-108 398,-108 398,-108 392,-108 386,-102 386,-96 386,-96 386,-84 386,-84 386,-78 392,-72 398,-72 398,-72 458,-72 458,-72 464,-72 470,-78 470,-84 470,-84 470,-96 470,-96 470,-102 464,-108 458,-108"/>
<text text-anchor="middle" x="428" y="-87.5" font-family="sans" font-size="10.00">hicrep_matrix</text>
</g>
<!-- 24&#45;&gt;0 -->
<g id="edge2" class="edge">
<title>24&#45;&gt;0</title>
<path fill="none" stroke="grey" stroke-width="2" d="M428,-71.7C428,-63.98 428,-54.71 428,-46.11"/>
<polygon fill="grey" stroke="grey" stroke-width="2" points="431.5,-46.1 428,-36.1 424.5,-46.1 431.5,-46.1"/>
</g>
<!-- 25 -->
<g id="node26" class="node">
<title>25</title>
<path fill="none" stroke="#8fd856" stroke-width="2" d="M92,-396C92,-396 12,-396 12,-396 6,-396 0,-390 0,-384 0,-384 0,-372 0,-372 0,-366 6,-360 12,-360 12,-360 92,-360 92,-360 98,-360 104,-366 104,-372 104,-372 104,-384 104,-384 104,-390 98,-396 92,-396"/>
<text text-anchor="middle" x="52" y="-375.5" font-family="sans" font-size="10.00">plot_distance_law</text>
</g>
<!-- 25&#45;&gt;0 -->
<g id="edge6" class="edge">
<title>25&#45;&gt;0</title>
<path fill="none" stroke="grey" stroke-width="2" d="M48.36,-359.6C43.1,-332.92 34,-280.23 34,-235 34,-235 34,-235 34,-161 34,-105.06 73.35,-97.77 123,-72 211.2,-26.22 331.1,-18.92 390.9,-18.4"/>
<polygon fill="grey" stroke="grey" stroke-width="2" points="391.01,-21.9 401,-18.37 390.99,-14.9 391.01,-21.9"/>
</g>
<!-- 26&#45;&gt;25 -->
<g id="edge38" class="edge">
<title>26&#45;&gt;25</title>
<path fill="none" stroke="grey" stroke-width="2" d="M256.86,-575.99C224.23,-553.32 166.36,-511.05 123,-468 103.02,-448.16 83.29,-422.85 69.72,-404.29"/>
<polygon fill="grey" stroke="grey" stroke-width="2" points="72.45,-402.09 63.76,-396.03 66.78,-406.19 72.45,-402.09"/>
</g>
<!-- 27 -->
<g id="node28" class="node">
<title>27</title>
<path fill="none" stroke="#d8d356" stroke-width="2" d="M642.5,-108C642.5,-108 559.5,-108 559.5,-108 553.5,-108 547.5,-102 547.5,-96 547.5,-96 547.5,-84 547.5,-84 547.5,-78 553.5,-72 559.5,-72 559.5,-72 642.5,-72 642.5,-72 648.5,-72 654.5,-78 654.5,-84 654.5,-84 654.5,-96 654.5,-96 654.5,-102 648.5,-108 642.5,-108"/>
<text text-anchor="middle" x="601" y="-87.5" font-family="sans" font-size="10.00">convert_identifiers</text>
</g>
<!-- 27&#45;&gt;0 -->
<g id="edge9" class="edge">
<title>27&#45;&gt;0</title>
<path fill="none" stroke="grey" stroke-width="2" d="M558.68,-71.88C529.78,-60.18 491.88,-44.85 464.34,-33.7"/>
<polygon fill="grey" stroke="grey" stroke-width="2" points="465.65,-30.46 455.07,-29.95 463.02,-36.95 465.65,-30.46"/>
</g>
<!-- 28 -->
<g id="node29" class="node">
<title>28</title>
<path fill="none" stroke="#d8cb56" stroke-width="2" d="M667.5,-180C667.5,-180 558.5,-180 558.5,-180 552.5,-180 546.5,-174 546.5,-168 546.5,-168 546.5,-156 546.5,-156 546.5,-150 552.5,-144 558.5,-144 558.5,-144 667.5,-144 667.5,-144 673.5,-144 679.5,-150 679.5,-156 679.5,-156 679.5,-168 679.5,-168 679.5,-174 673.5,-180 667.5,-180"/>
<text text-anchor="middle" x="613" y="-159.5" font-family="sans" font-size="10.00">map_neff_c3_identifiers</text>
</g>
<!-- 28&#45;&gt;27 -->
<g id="edge41" class="edge">
<title>28&#45;&gt;27</title>
<path fill="none" stroke="grey" stroke-width="2" d="M610.03,-143.7C608.71,-135.98 607.12,-126.71 605.65,-118.11"/>
<polygon fill="grey" stroke="grey" stroke-width="2" points="609.07,-117.37 603.93,-108.1 602.17,-118.55 609.07,-117.37"/>
</g>
<!-- 29 -->
<g id="node30" class="node">
<title>29</title>
<path fill="none" stroke="#56d882" stroke-width="2" d="M661.5,-252C661.5,-252 570.5,-252 570.5,-252 564.5,-252 558.5,-246 558.5,-240 558.5,-240 558.5,-228 558.5,-228 558.5,-222 564.5,-216 570.5,-216 570.5,-216 661.5,-216 661.5,-216 667.5,-216 673.5,-222 673.5,-228 673.5,-228 673.5,-240 673.5,-240 673.5,-246 667.5,-252 661.5,-252"/>
<text text-anchor="middle" x="616" y="-231.5" font-family="sans" font-size="10.00">liftover_annotations</text>
</g>
<!-- 29&#45;&gt;28 -->
<g id="edge43" class="edge">
<title>29&#45;&gt;28</title>
<path fill="none" stroke="grey" stroke-width="2" d="M615.26,-215.7C614.93,-207.98 614.53,-198.71 614.16,-190.11"/>
<polygon fill="grey" stroke="grey" stroke-width="2" points="617.66,-189.95 613.73,-180.1 610.66,-190.25 617.66,-189.95"/>
</g>
<!-- 30 -->
<g id="node31" class="node">
<title>30</title>
<path fill="none" stroke="#56d8d0" stroke-width="2" d="M766,-180C766,-180 710,-180 710,-180 704,-180 698,-174 698,-168 698,-168 698,-156 698,-156 698,-150 704,-144 710,-144 710,-144 766,-144 766,-144 772,-144 778,-150 778,-156 778,-156 778,-168 778,-168 778,-174 772,-180 766,-180"/>
<text text-anchor="middle" x="738" y="-159.5" font-family="sans" font-size="10.00">get_diff_expr</text>
</g>
<!-- 30&#45;&gt;27 -->
<g id="edge42" class="edge">
<title>30&#45;&gt;27</title>
<path fill="none" stroke="grey" stroke-width="2" d="M704.49,-143.88C686.16,-134.51 663.26,-122.81 643.67,-112.8"/>
<polygon fill="grey" stroke="grey" stroke-width="2" points="645.14,-109.62 634.64,-108.19 641.96,-115.86 645.14,-109.62"/>
</g>
<!-- 31 -->
<g id="node32" class="node">
<title>31</title>
<path fill="none" stroke="#567bd8" stroke-width="2" d="M765,-108C765,-108 685,-108 685,-108 679,-108 673,-102 673,-96 673,-96 673,-84 673,-84 673,-78 679,-72 685,-72 685,-72 765,-72 765,-72 771,-72 777,-78 777,-84 777,-84 777,-96 777,-96 777,-102 771,-108 765,-108"/>
<text text-anchor="middle" x="725" y="-87.5" font-family="sans" font-size="10.00">get_expr_vs_time</text>
</g>
<!-- 31&#45;&gt;0 -->
<g id="edge7" class="edge">
<title>31&#45;&gt;0</title>
<path fill="none" stroke="grey" stroke-width="2" d="M672.95,-74.54C669.59,-73.67 666.25,-72.81 663,-72 593.4,-54.62 511.57,-36.74 465.14,-26.83"/>
<polygon fill="grey" stroke="grey" stroke-width="2" points="465.74,-23.38 455.23,-24.72 464.29,-30.22 465.74,-23.38"/>
</g>
<!-- 32&#45;&gt;0 -->
<g id="edge8" class="edge">
<title>32&#45;&gt;0</title>
<path fill="none" stroke="grey" stroke-width="2" d="M726.12,-359.82C756.84,-335.73 806,-288.78 806,-235 806,-235 806,-235 806,-161 806,-120.46 815.71,-99.59 786,-72 739.96,-29.25 547.38,-20.95 465.31,-19.36"/>
<polygon fill="grey" stroke="grey" stroke-width="2" points="465.23,-15.86 455.17,-19.19 465.11,-22.86 465.23,-15.86"/>
</g>
<!-- 33 -->
<g id="node34" class="node">
<title>33</title>
<path fill="none" stroke="#56d8b9" stroke-width="2" d="M662,-468C662,-468 570,-468 570,-468 564,-468 558,-462 558,-456 558,-456 558,-444 558,-444 558,-438 564,-432 570,-432 570,-432 662,-432 662,-432 668,-432 674,-438 674,-444 674,-444 674,-456 674,-456 674,-462 668,-468 662,-468"/>
<text text-anchor="middle" x="616" y="-447.5" font-family="sans" font-size="10.00">get_lowest_contacts</text>
</g>
<!-- 33&#45;&gt;32 -->
<g id="edge45" class="edge">
<title>33&#45;&gt;32</title>
<path fill="none" stroke="grey" stroke-width="2" d="M637.26,-431.7C648.09,-422.88 661.42,-412.03 673.16,-402.47"/>
<polygon fill="grey" stroke="grey" stroke-width="2" points="675.44,-405.13 680.99,-396.1 671.02,-399.7 675.44,-405.13"/>
</g>
<!-- 34&#45;&gt;33 -->
<g id="edge46" class="edge">
<title>34&#45;&gt;33</title>
<path fill="none" stroke="grey" stroke-width="2" d="M594.92,-503.7C598.07,-495.81 601.88,-486.3 605.38,-477.55"/>
<polygon fill="grey" stroke="grey" stroke-width="2" points="608.69,-478.69 609.16,-468.1 602.19,-476.09 608.69,-478.69"/>
</g>
</g>
</svg>
