<?xml version="1.0" encoding="UTF-8" standalone="no"?>
<!DOCTYPE svg PUBLIC "-//W3C//DTD SVG 1.1//EN"
 "http://www.w3.org/Graphics/SVG/1.1/DTD/svg11.dtd">
<!-- Generated by graphviz version 2.49.0 (20210829.0051)
 -->
<!-- Title: snakemake_dag Pages: 1 -->
<svg width="1185pt" height="1196pt"
 viewBox="0.00 0.00 1184.50 1196.00" xmlns="http://www.w3.org/2000/svg" xmlns:xlink="http://www.w3.org/1999/xlink">
<g id="graph0" class="graph" transform="scale(1 1) rotate(0) translate(4 1192)">
<title>snakemake_dag</title>
<polygon fill="white" stroke="transparent" points="-4,4 -4,-1192 1180.5,-1192 1180.5,4 -4,4"/>
<!-- 0 -->
<g id="node1" class="node">
<title>0</title>
<path fill="none" stroke="#5692d8" stroke-width="2" d="M713,-36C713,-36 683,-36 683,-36 677,-36 671,-30 671,-24 671,-24 671,-12 671,-12 671,-6 677,0 683,0 683,0 713,0 713,0 719,0 725,-6 725,-12 725,-12 725,-24 725,-24 725,-30 719,-36 713,-36"/>
<text text-anchor="middle" x="698" y="-15.5" font-family="sans" font-size="10.00">all</text>
</g>
<!-- 1 -->
<g id="node2" class="node">
<title>1</title>
<path fill="none" stroke="#59d856" stroke-width="2" d="M229,-396C229,-396 143,-396 143,-396 137,-396 131,-390 131,-384 131,-384 131,-372 131,-372 131,-366 137,-360 143,-360 143,-360 229,-360 229,-360 235,-360 241,-366 241,-372 241,-372 241,-384 241,-384 241,-390 235,-396 229,-396"/>
<text text-anchor="middle" x="186" y="-375.5" font-family="sans" font-size="10.00">serpentine_binning</text>
</g>
<!-- 1&#45;&gt;0 -->
<g id="edge1" class="edge">
<title>1&#45;&gt;0</title>
<path fill="none" stroke="grey" stroke-width="2" d="M145.23,-359.86C104.79,-340.36 45.18,-304.3 19,-252 -25.35,-163.4 86.22,-101.76 144,-72 234.5,-25.38 551.41,-19.6 660.65,-19.01"/>
<polygon fill="grey" stroke="grey" stroke-width="2" points="660.87,-22.51 670.86,-18.97 660.84,-15.51 660.87,-22.51"/>
</g>
<!-- 2 -->
<g id="node3" class="node">
<title>2</title>
<path fill="none" stroke="#bed856" stroke-width="2" d="M591.5,-540C591.5,-540 480.5,-540 480.5,-540 474.5,-540 468.5,-534 468.5,-528 468.5,-528 468.5,-516 468.5,-516 468.5,-510 474.5,-504 480.5,-504 480.5,-504 591.5,-504 591.5,-504 597.5,-504 603.5,-510 603.5,-516 603.5,-516 603.5,-528 603.5,-528 603.5,-534 597.5,-540 591.5,-540"/>
<text text-anchor="middle" x="536" y="-519.5" font-family="sans" font-size="10.00">zoomify_normalize_cool</text>
</g>
<!-- 2&#45;&gt;1 -->
<g id="edge11" class="edge">
<title>2&#45;&gt;1</title>
<path fill="none" stroke="grey" stroke-width="2" d="M480.43,-504C455.72,-495.16 426.87,-483.04 403,-468 383.04,-455.42 384.5,-443.67 364,-432 353.8,-426.19 297.59,-409.84 251.03,-396.82"/>
<polygon fill="grey" stroke="grey" stroke-width="2" points="251.83,-393.41 241.26,-394.1 249.95,-400.15 251.83,-393.41"/>
</g>
<!-- 17 -->
<g id="node18" class="node">
<title>17</title>
<path fill="none" stroke="#88d856" stroke-width="2" d="M623,-324C623,-324 513,-324 513,-324 507,-324 501,-318 501,-312 501,-312 501,-300 501,-300 501,-294 507,-288 513,-288 513,-288 623,-288 623,-288 629,-288 635,-294 635,-300 635,-300 635,-312 635,-312 635,-318 629,-324 623,-324"/>
<text text-anchor="middle" x="568" y="-303.5" font-family="sans" font-size="10.00">quantify_pattern_scores</text>
</g>
<!-- 2&#45;&gt;17 -->
<g id="edge30" class="edge">
<title>2&#45;&gt;17</title>
<path fill="none" stroke="grey" stroke-width="2" d="M538.56,-503.85C544.1,-466.83 557.21,-379.18 563.9,-334.39"/>
<polygon fill="grey" stroke="grey" stroke-width="2" points="567.41,-334.64 565.42,-324.23 560.48,-333.6 567.41,-334.64"/>
</g>
<!-- 19 -->
<g id="node20" class="node">
<title>19</title>
<path fill="none" stroke="#56d873" stroke-width="2" d="M496,-468C496,-468 424,-468 424,-468 418,-468 412,-462 412,-456 412,-456 412,-444 412,-444 412,-438 418,-432 424,-432 424,-432 496,-432 496,-432 502,-432 508,-438 508,-444 508,-444 508,-456 508,-456 508,-462 502,-468 496,-468"/>
<text text-anchor="middle" x="460" y="-447.5" font-family="sans" font-size="10.00">merge_matrices</text>
</g>
<!-- 2&#45;&gt;19 -->
<g id="edge32" class="edge">
<title>2&#45;&gt;19</title>
<path fill="none" stroke="grey" stroke-width="2" d="M517.21,-503.7C507.83,-495.05 496.32,-484.45 486.09,-475.03"/>
<polygon fill="grey" stroke="grey" stroke-width="2" points="488.3,-472.3 478.57,-468.1 483.55,-477.45 488.3,-472.3"/>
</g>
<!-- 20 -->
<g id="node21" class="node">
<title>20</title>
<path fill="none" stroke="#ced856" stroke-width="2" d="M686,-468C686,-468 576,-468 576,-468 570,-468 564,-462 564,-456 564,-456 564,-444 564,-444 564,-438 570,-432 576,-432 576,-432 686,-432 686,-432 692,-432 698,-438 698,-444 698,-444 698,-456 698,-456 698,-462 692,-468 686,-468"/>
<text text-anchor="middle" x="631" y="-447.5" font-family="sans" font-size="10.00">find_subsampling_value</text>
</g>
<!-- 2&#45;&gt;20 -->
<g id="edge33" class="edge">
<title>2&#45;&gt;20</title>
<path fill="none" stroke="grey" stroke-width="2" d="M559.48,-503.7C571.56,-494.8 586.45,-483.82 599.52,-474.2"/>
<polygon fill="grey" stroke="grey" stroke-width="2" points="601.81,-476.85 607.79,-468.1 597.66,-471.22 601.81,-476.85"/>
</g>
<!-- 33 -->
<g id="node34" class="node">
<title>33</title>
<path fill="none" stroke="#d8ac56" stroke-width="2" d="M748,-396C748,-396 704,-396 704,-396 698,-396 692,-390 692,-384 692,-384 692,-372 692,-372 692,-366 698,-360 704,-360 704,-360 748,-360 748,-360 754,-360 760,-366 760,-372 760,-372 760,-384 760,-384 760,-390 754,-396 748,-396"/>
<text text-anchor="middle" x="726" y="-375.5" font-family="sans" font-size="10.00">run_hicrep</text>
</g>
<!-- 2&#45;&gt;33 -->
<g id="edge54" class="edge">
<title>2&#45;&gt;33</title>
<path fill="none" stroke="grey" stroke-width="2" d="M603.92,-516.1C639.41,-509.99 680.8,-496.68 707,-468 722.2,-451.37 726.36,-425.65 727.06,-406.13"/>
<polygon fill="grey" stroke="grey" stroke-width="2" points="730.56,-406.05 727.15,-396.02 723.56,-405.99 730.56,-406.05"/>
</g>
<!-- 34 -->
<g id="node35" class="node">
<title>34</title>
<path fill="none" stroke="#d87556" stroke-width="2" d="M836,-468C836,-468 766,-468 766,-468 760,-468 754,-462 754,-456 754,-456 754,-444 754,-444 754,-438 760,-432 766,-432 766,-432 836,-432 836,-432 842,-432 848,-438 848,-444 848,-444 848,-456 848,-456 848,-462 842,-468 836,-468"/>
<text text-anchor="middle" x="801" y="-447.5" font-family="sans" font-size="10.00">select_h_param</text>
</g>
<!-- 2&#45;&gt;34 -->
<g id="edge55" class="edge">
<title>2&#45;&gt;34</title>
<path fill="none" stroke="grey" stroke-width="2" d="M602.69,-503.99C642.58,-493.74 694.24,-480.32 740,-468 741.25,-467.66 742.52,-467.32 743.8,-466.97"/>
<polygon fill="grey" stroke="grey" stroke-width="2" points="745.01,-470.27 753.73,-464.26 743.17,-463.52 745.01,-470.27"/>
</g>
<!-- 3 -->
<g id="node4" class="node">
<title>3</title>
<path fill="none" stroke="#56b9d8" stroke-width="2" d="M355.5,-684C355.5,-684 298.5,-684 298.5,-684 292.5,-684 286.5,-678 286.5,-672 286.5,-672 286.5,-660 286.5,-660 286.5,-654 292.5,-648 298.5,-648 298.5,-648 355.5,-648 355.5,-648 361.5,-648 367.5,-654 367.5,-660 367.5,-660 367.5,-672 367.5,-672 367.5,-678 361.5,-684 355.5,-684"/>
<text text-anchor="middle" x="327" y="-663.5" font-family="sans" font-size="10.00">pairs_to_cool</text>
</g>
<!-- 3&#45;&gt;2 -->
<g id="edge12" class="edge">
<title>3&#45;&gt;2</title>
<path fill="none" stroke="grey" stroke-width="2" d="M352.21,-647.87C389.71,-622.39 460.27,-574.45 502.21,-545.96"/>
<polygon fill="grey" stroke="grey" stroke-width="2" points="504.4,-548.7 510.7,-540.19 500.46,-542.91 504.4,-548.7"/>
</g>
<!-- 26 -->
<g id="node27" class="node">
<title>26</title>
<path fill="none" stroke="#56d87b" stroke-width="2" d="M343.5,-468C343.5,-468 232.5,-468 232.5,-468 226.5,-468 220.5,-462 220.5,-456 220.5,-456 220.5,-444 220.5,-444 220.5,-438 226.5,-432 232.5,-432 232.5,-432 343.5,-432 343.5,-432 349.5,-432 355.5,-438 355.5,-444 355.5,-444 355.5,-456 355.5,-456 355.5,-462 349.5,-468 343.5,-468"/>
<text text-anchor="middle" x="288" y="-447.5" font-family="sans" font-size="10.00">condition_merged_cools</text>
</g>
<!-- 3&#45;&gt;26 -->
<g id="edge44" class="edge">
<title>3&#45;&gt;26</title>
<path fill="none" stroke="grey" stroke-width="2" d="M338.05,-647.61C343.74,-637.62 350.08,-624.58 353,-612 357.01,-594.74 358.46,-517.49 352,-504 346.4,-492.3 336.83,-482.27 326.77,-474.19"/>
<polygon fill="grey" stroke="grey" stroke-width="2" points="328.78,-471.32 318.67,-468.14 324.59,-476.93 328.78,-471.32"/>
</g>
<!-- 28 -->
<g id="node29" class="node">
<title>28</title>
<path fill="none" stroke="#56d85b" stroke-width="2" d="M332,-612C332,-612 234,-612 234,-612 228,-612 222,-606 222,-600 222,-600 222,-588 222,-588 222,-582 228,-576 234,-576 234,-576 332,-576 332,-576 338,-576 344,-582 344,-588 344,-588 344,-600 344,-600 344,-606 338,-612 332,-612"/>
<text text-anchor="middle" x="283" y="-591.5" font-family="sans" font-size="10.00">get_merged_contacts</text>
</g>
<!-- 3&#45;&gt;28 -->
<g id="edge47" class="edge">
<title>3&#45;&gt;28</title>
<path fill="none" stroke="grey" stroke-width="2" d="M316.12,-647.7C311.01,-639.56 304.8,-629.69 299.16,-620.7"/>
<polygon fill="grey" stroke="grey" stroke-width="2" points="302.04,-618.71 293.75,-612.1 296.11,-622.43 302.04,-618.71"/>
</g>
<!-- 4 -->
<g id="node5" class="node">
<title>4</title>
<path fill="none" stroke="#d88d56" stroke-width="2" d="M241.5,-756C241.5,-756 188.5,-756 188.5,-756 182.5,-756 176.5,-750 176.5,-744 176.5,-744 176.5,-732 176.5,-732 176.5,-726 182.5,-720 188.5,-720 188.5,-720 241.5,-720 241.5,-720 247.5,-720 253.5,-726 253.5,-732 253.5,-732 253.5,-744 253.5,-744 253.5,-750 247.5,-756 241.5,-756"/>
<text text-anchor="middle" x="215" y="-735.5" font-family="sans" font-size="10.00">chrom_sizes</text>
</g>
<!-- 4&#45;&gt;3 -->
<g id="edge13" class="edge">
<title>4&#45;&gt;3</title>
<path fill="none" stroke="grey" stroke-width="2" d="M242.4,-719.88C256.91,-710.81 274.92,-699.55 290.59,-689.76"/>
<polygon fill="grey" stroke="grey" stroke-width="2" points="292.87,-692.46 299.5,-684.19 289.16,-686.52 292.87,-692.46"/>
</g>
<!-- 39 -->
<g id="node40" class="node">
<title>39</title>
<path fill="none" stroke="#56d863" stroke-width="2" d="M614,-180C614,-180 490,-180 490,-180 484,-180 478,-174 478,-168 478,-168 478,-156 478,-156 478,-150 484,-144 490,-144 490,-144 614,-144 614,-144 620,-144 626,-150 626,-156 626,-156 626,-168 626,-168 626,-174 620,-180 614,-180"/>
<text text-anchor="middle" x="552" y="-159.5" font-family="sans" font-size="10.00">get_loops_overlap_borders</text>
</g>
<!-- 4&#45;&gt;39 -->
<g id="edge65" class="edge">
<title>4&#45;&gt;39</title>
<path fill="none" stroke="grey" stroke-width="2" d="M210.35,-719.66C203.62,-693.05 192,-640.45 192,-595 192,-595 192,-595 192,-521 192,-480.55 182.66,-460.85 211,-432 260.56,-381.55 303.71,-429.49 366,-396 386.49,-384.98 386.63,-375.47 404,-360 410.98,-353.78 528.18,-260.01 533,-252 544.24,-233.33 548.89,-208.94 550.78,-190.42"/>
<polygon fill="grey" stroke="grey" stroke-width="2" points="554.28,-190.53 551.6,-180.28 547.3,-189.96 554.28,-190.53"/>
</g>
<!-- 5 -->
<g id="node6" class="node">
<title>5</title>
<path fill="none" stroke="#568ad8" stroke-width="2" d="M249,-1044C249,-1044 189,-1044 189,-1044 183,-1044 177,-1038 177,-1032 177,-1032 177,-1020 177,-1020 177,-1014 183,-1008 189,-1008 189,-1008 249,-1008 249,-1008 255,-1008 261,-1014 261,-1020 261,-1020 261,-1032 261,-1032 261,-1038 255,-1044 249,-1044"/>
<text text-anchor="middle" x="219" y="-1023.5" font-family="sans" font-size="10.00">filter_genome</text>
</g>
<!-- 5&#45;&gt;4 -->
<g id="edge15" class="edge">
<title>5&#45;&gt;4</title>
<path fill="none" stroke="grey" stroke-width="2" d="M218.03,-1007.76C215.97,-969.13 211.48,-872.71 213,-792 213.16,-783.68 213.45,-774.63 213.77,-766.4"/>
<polygon fill="grey" stroke="grey" stroke-width="2" points="217.28,-766.32 214.19,-756.18 210.28,-766.03 217.28,-766.32"/>
</g>
<!-- 7 -->
<g id="node8" class="node">
<title>7</title>
<path fill="none" stroke="#d8b456" stroke-width="2" d="M302,-828C302,-828 234,-828 234,-828 228,-828 222,-822 222,-816 222,-816 222,-804 222,-804 222,-798 228,-792 234,-792 234,-792 302,-792 302,-792 308,-792 314,-798 314,-804 314,-804 314,-816 314,-816 314,-822 308,-828 302,-828"/>
<text text-anchor="middle" x="268" y="-807.5" font-family="sans" font-size="10.00">digest_genome</text>
</g>
<!-- 5&#45;&gt;7 -->
<g id="edge18" class="edge">
<title>5&#45;&gt;7</title>
<path fill="none" stroke="grey" stroke-width="2" d="M222.93,-1007.85C231.42,-970.75 251.56,-882.81 261.79,-838.1"/>
<polygon fill="grey" stroke="grey" stroke-width="2" points="265.23,-838.76 264.05,-828.23 258.41,-837.2 265.23,-838.76"/>
</g>
<!-- 11 -->
<g id="node12" class="node">
<title>11</title>
<path fill="none" stroke="#d89556" stroke-width="2" d="M322.5,-972C322.5,-972 281.5,-972 281.5,-972 275.5,-972 269.5,-966 269.5,-960 269.5,-960 269.5,-948 269.5,-948 269.5,-942 275.5,-936 281.5,-936 281.5,-936 322.5,-936 322.5,-936 328.5,-936 334.5,-942 334.5,-948 334.5,-948 334.5,-960 334.5,-960 334.5,-966 328.5,-972 322.5,-972"/>
<text text-anchor="middle" x="302" y="-951.5" font-family="sans" font-size="10.00">bt2_index</text>
</g>
<!-- 5&#45;&gt;11 -->
<g id="edge23" class="edge">
<title>5&#45;&gt;11</title>
<path fill="none" stroke="grey" stroke-width="2" d="M239.52,-1007.7C249.87,-998.97 262.59,-988.24 273.84,-978.75"/>
<polygon fill="grey" stroke="grey" stroke-width="2" points="276.33,-981.23 281.72,-972.1 271.82,-975.88 276.33,-981.23"/>
</g>
<!-- 6 -->
<g id="node7" class="node">
<title>6</title>
<path fill="none" stroke="#d8d356" stroke-width="2" d="M146,-1116C146,-1116 60,-1116 60,-1116 54,-1116 48,-1110 48,-1104 48,-1104 48,-1092 48,-1092 48,-1086 54,-1080 60,-1080 60,-1080 146,-1080 146,-1080 152,-1080 158,-1086 158,-1092 158,-1092 158,-1104 158,-1104 158,-1110 152,-1116 146,-1116"/>
<text text-anchor="middle" x="103" y="-1095.5" font-family="sans" font-size="10.00">get_zenodo_assets</text>
</g>
<!-- 6&#45;&gt;5 -->
<g id="edge17" class="edge">
<title>6&#45;&gt;5</title>
<path fill="none" stroke="grey" stroke-width="2" d="M131.38,-1079.88C146.54,-1070.72 165.41,-1059.34 181.74,-1049.48"/>
<polygon fill="grey" stroke="grey" stroke-width="2" points="183.76,-1052.35 190.51,-1044.19 180.14,-1046.36 183.76,-1052.35"/>
</g>
<!-- 21 -->
<g id="node22" class="node">
<title>21</title>
<path fill="none" stroke="#5663d8" stroke-width="2" d="M245,-108C245,-108 165,-108 165,-108 159,-108 153,-102 153,-96 153,-96 153,-84 153,-84 153,-78 159,-72 165,-72 165,-72 245,-72 245,-72 251,-72 257,-78 257,-84 257,-84 257,-96 257,-96 257,-102 251,-108 245,-108"/>
<text text-anchor="middle" x="205" y="-87.5" font-family="sans" font-size="10.00">go_enrich_change</text>
</g>
<!-- 6&#45;&gt;21 -->
<g id="edge36" class="edge">
<title>6&#45;&gt;21</title>
<path fill="none" stroke="grey" stroke-width="2" d="M79.37,-1079.97C48.96,-1055.89 0,-1008.75 0,-955 0,-955 0,-955 0,-233 0,-162.67 82.56,-124.41 142.89,-105.85"/>
<polygon fill="grey" stroke="grey" stroke-width="2" points="144.15,-109.13 152.74,-102.93 142.16,-102.42 144.15,-109.13"/>
</g>
<!-- 29 -->
<g id="node30" class="node">
<title>29</title>
<path fill="none" stroke="#70d856" stroke-width="2" d="M132.5,-900C132.5,-900 73.5,-900 73.5,-900 67.5,-900 61.5,-894 61.5,-888 61.5,-888 61.5,-876 61.5,-876 61.5,-870 67.5,-864 73.5,-864 73.5,-864 132.5,-864 132.5,-864 138.5,-864 144.5,-870 144.5,-876 144.5,-876 144.5,-888 144.5,-888 144.5,-894 138.5,-900 132.5,-900"/>
<text text-anchor="middle" x="103" y="-879.5" font-family="sans" font-size="10.00">annot_to_bed</text>
</g>
<!-- 6&#45;&gt;29 -->
<g id="edge48" class="edge">
<title>6&#45;&gt;29</title>
<path fill="none" stroke="grey" stroke-width="2" d="M103,-1079.85C103,-1042.83 103,-955.18 103,-910.39"/>
<polygon fill="grey" stroke="grey" stroke-width="2" points="106.5,-910.23 103,-900.23 99.5,-910.23 106.5,-910.23"/>
</g>
<!-- 7&#45;&gt;4 -->
<g id="edge16" class="edge">
<title>7&#45;&gt;4</title>
<path fill="none" stroke="grey" stroke-width="2" d="M254.9,-791.7C248.61,-783.39 240.95,-773.28 234.04,-764.14"/>
<polygon fill="grey" stroke="grey" stroke-width="2" points="236.78,-761.96 227.95,-756.1 231.2,-766.19 236.78,-761.96"/>
</g>
<!-- 36 -->
<g id="node37" class="node">
<title>36</title>
<path fill="none" stroke="#56a2d8" stroke-width="2" d="M550,-684C550,-684 398,-684 398,-684 392,-684 386,-678 386,-672 386,-672 386,-660 386,-660 386,-654 392,-648 398,-648 398,-648 550,-648 550,-648 556,-648 562,-654 562,-660 562,-660 562,-672 562,-672 562,-678 556,-684 550,-684"/>
<text text-anchor="middle" x="474" y="-663.5" font-family="sans" font-size="10.00">compute_genomic_distance_law</text>
</g>
<!-- 7&#45;&gt;36 -->
<g id="edge57" class="edge">
<title>7&#45;&gt;36</title>
<path fill="none" stroke="grey" stroke-width="2" d="M279.16,-791.79C292.68,-772.11 317.14,-740.05 345,-720 363.58,-706.63 386.02,-695.91 406.95,-687.7"/>
<polygon fill="grey" stroke="grey" stroke-width="2" points="408.32,-690.93 416.44,-684.11 405.84,-684.38 408.32,-690.93"/>
</g>
<!-- 8 -->
<g id="node9" class="node">
<title>8</title>
<path fill="none" stroke="#566bd8" stroke-width="2" d="M431.5,-756C431.5,-756 366.5,-756 366.5,-756 360.5,-756 354.5,-750 354.5,-744 354.5,-744 354.5,-732 354.5,-732 354.5,-726 360.5,-720 366.5,-720 366.5,-720 431.5,-720 431.5,-720 437.5,-720 443.5,-726 443.5,-732 443.5,-732 443.5,-744 443.5,-744 443.5,-750 437.5,-756 431.5,-756"/>
<text text-anchor="middle" x="399" y="-735.5" font-family="sans" font-size="10.00">generate_pairs</text>
</g>
<!-- 8&#45;&gt;3 -->
<g id="edge14" class="edge">
<title>8&#45;&gt;3</title>
<path fill="none" stroke="grey" stroke-width="2" d="M381.2,-719.7C372.4,-711.14 361.62,-700.66 352,-691.3"/>
<polygon fill="grey" stroke="grey" stroke-width="2" points="354.2,-688.57 344.59,-684.1 349.32,-693.58 354.2,-688.57"/>
</g>
<!-- 8&#45;&gt;36 -->
<g id="edge58" class="edge">
<title>8&#45;&gt;36</title>
<path fill="none" stroke="grey" stroke-width="2" d="M417.54,-719.7C426.8,-711.05 438.16,-700.45 448.26,-691.03"/>
<polygon fill="grey" stroke="grey" stroke-width="2" points="450.75,-693.49 455.67,-684.1 445.98,-688.37 450.75,-693.49"/>
</g>
<!-- 9 -->
<g id="node10" class="node">
<title>9</title>
<path fill="none" stroke="#56d8b1" stroke-width="2" d="M454,-828C454,-828 344,-828 344,-828 338,-828 332,-822 332,-816 332,-816 332,-804 332,-804 332,-798 338,-792 344,-792 344,-792 454,-792 454,-792 460,-792 466,-798 466,-804 466,-804 466,-816 466,-816 466,-822 460,-828 454,-828"/>
<text text-anchor="middle" x="399" y="-807.5" font-family="sans" font-size="10.00">merge_split_alignments</text>
</g>
<!-- 9&#45;&gt;8 -->
<g id="edge19" class="edge">
<title>9&#45;&gt;8</title>
<path fill="none" stroke="grey" stroke-width="2" d="M399,-791.7C399,-783.98 399,-774.71 399,-766.11"/>
<polygon fill="grey" stroke="grey" stroke-width="2" points="402.5,-766.1 399,-756.1 395.5,-766.1 402.5,-766.1"/>
</g>
<!-- 10 -->
<g id="node11" class="node">
<title>10</title>
<path fill="none" stroke="#56c1d8" stroke-width="2" d="M428,-900C428,-900 366,-900 366,-900 360,-900 354,-894 354,-888 354,-888 354,-876 354,-876 354,-870 360,-864 366,-864 366,-864 428,-864 428,-864 434,-864 440,-870 440,-876 440,-876 440,-888 440,-888 440,-894 434,-900 428,-900"/>
<text text-anchor="middle" x="397" y="-879.5" font-family="sans" font-size="10.00">split_align_hic</text>
</g>
<!-- 10&#45;&gt;9 -->
<g id="edge20" class="edge">
<title>10&#45;&gt;9</title>
<path fill="none" stroke="grey" stroke-width="2" d="M397.49,-863.7C397.71,-855.98 397.98,-846.71 398.23,-838.11"/>
<polygon fill="grey" stroke="grey" stroke-width="2" points="401.72,-838.2 398.51,-828.1 394.73,-838 401.72,-838.2"/>
</g>
<!-- 11&#45;&gt;10 -->
<g id="edge22" class="edge">
<title>11&#45;&gt;10</title>
<path fill="none" stroke="grey" stroke-width="2" d="M325.48,-935.7C337.56,-926.8 352.45,-915.82 365.52,-906.2"/>
<polygon fill="grey" stroke="grey" stroke-width="2" points="367.81,-908.85 373.79,-900.1 363.66,-903.22 367.81,-908.85"/>
</g>
<!-- 12 -->
<g id="node13" class="node">
<title>12</title>
<path fill="none" stroke="#a7d856" stroke-width="2" d="M428.5,-972C428.5,-972 365.5,-972 365.5,-972 359.5,-972 353.5,-966 353.5,-960 353.5,-960 353.5,-948 353.5,-948 353.5,-942 359.5,-936 365.5,-936 365.5,-936 428.5,-936 428.5,-936 434.5,-936 440.5,-942 440.5,-948 440.5,-948 440.5,-960 440.5,-960 440.5,-966 434.5,-972 428.5,-972"/>
<text text-anchor="middle" x="397" y="-951.5" font-family="sans" font-size="10.00">split_hic_fastq</text>
</g>
<!-- 12&#45;&gt;10 -->
<g id="edge21" class="edge">
<title>12&#45;&gt;10</title>
<path fill="none" stroke="grey" stroke-width="2" d="M397,-935.7C397,-927.98 397,-918.71 397,-910.11"/>
<polygon fill="grey" stroke="grey" stroke-width="2" points="400.5,-910.1 397,-900.1 393.5,-910.1 400.5,-910.1"/>
</g>
<!-- 13 -->
<g id="node14" class="node">
<title>13</title>
<path fill="none" stroke="#9fd856" stroke-width="2" d="M429,-1044C429,-1044 365,-1044 365,-1044 359,-1044 353,-1038 353,-1032 353,-1032 353,-1020 353,-1020 353,-1014 359,-1008 365,-1008 365,-1008 429,-1008 429,-1008 435,-1008 441,-1014 441,-1020 441,-1020 441,-1032 441,-1032 441,-1038 435,-1044 429,-1044"/>
<text text-anchor="middle" x="397" y="-1023.5" font-family="sans" font-size="10.00">combine_units</text>
</g>
<!-- 13&#45;&gt;12 -->
<g id="edge24" class="edge">
<title>13&#45;&gt;12</title>
<path fill="none" stroke="grey" stroke-width="2" d="M397,-1007.7C397,-999.98 397,-990.71 397,-982.11"/>
<polygon fill="grey" stroke="grey" stroke-width="2" points="400.5,-982.1 397,-972.1 393.5,-982.1 400.5,-982.1"/>
</g>
<!-- 14 -->
<g id="node15" class="node">
<title>14</title>
<path fill="none" stroke="#d8a456" stroke-width="2" d="M416,-1116C416,-1116 378,-1116 378,-1116 372,-1116 366,-1110 366,-1104 366,-1104 366,-1092 366,-1092 366,-1086 372,-1080 378,-1080 378,-1080 416,-1080 416,-1080 422,-1080 428,-1086 428,-1092 428,-1092 428,-1104 428,-1104 428,-1110 422,-1116 416,-1116"/>
<text text-anchor="middle" x="397" y="-1095.5" font-family="sans" font-size="10.00">sra_to_fq</text>
</g>
<!-- 14&#45;&gt;13 -->
<g id="edge25" class="edge">
<title>14&#45;&gt;13</title>
<path fill="none" stroke="grey" stroke-width="2" d="M397,-1079.7C397,-1071.98 397,-1062.71 397,-1054.11"/>
<polygon fill="grey" stroke="grey" stroke-width="2" points="400.5,-1054.1 397,-1044.1 393.5,-1054.1 400.5,-1054.1"/>
</g>
<!-- 15 -->
<g id="node16" class="node">
<title>15</title>
<path fill="none" stroke="#d85e56" stroke-width="2" d="M412,-1188C412,-1188 382,-1188 382,-1188 376,-1188 370,-1182 370,-1176 370,-1176 370,-1164 370,-1164 370,-1158 376,-1152 382,-1152 382,-1152 412,-1152 412,-1152 418,-1152 424,-1158 424,-1164 424,-1164 424,-1176 424,-1176 424,-1182 418,-1188 412,-1188"/>
<text text-anchor="middle" x="397" y="-1167.5" font-family="sans" font-size="10.00">dl_sra</text>
</g>
<!-- 15&#45;&gt;14 -->
<g id="edge26" class="edge">
<title>15&#45;&gt;14</title>
<path fill="none" stroke="grey" stroke-width="2" d="M397,-1151.7C397,-1143.98 397,-1134.71 397,-1126.11"/>
<polygon fill="grey" stroke="grey" stroke-width="2" points="400.5,-1126.1 397,-1116.1 393.5,-1126.1 400.5,-1126.1"/>
</g>
<!-- 16 -->
<g id="node17" class="node">
<title>16</title>
<path fill="none" stroke="#d87d56" stroke-width="2" d="M686,-252C686,-252 592,-252 592,-252 586,-252 580,-246 580,-240 580,-240 580,-228 580,-228 580,-222 586,-216 592,-216 592,-216 686,-216 686,-216 692,-216 698,-222 698,-228 698,-228 698,-240 698,-240 698,-246 692,-252 686,-252"/>
<text text-anchor="middle" x="639" y="-231.5" font-family="sans" font-size="10.00">plot_patterns_scores</text>
</g>
<!-- 16&#45;&gt;0 -->
<g id="edge6" class="edge">
<title>16&#45;&gt;0</title>
<path fill="none" stroke="grey" stroke-width="2" d="M643.73,-215.85C653.96,-178.75 678.2,-90.81 690.53,-46.1"/>
<polygon fill="grey" stroke="grey" stroke-width="2" points="693.97,-46.8 693.25,-36.23 687.22,-44.94 693.97,-46.8"/>
</g>
<!-- 17&#45;&gt;16 -->
<g id="edge27" class="edge">
<title>17&#45;&gt;16</title>
<path fill="none" stroke="grey" stroke-width="2" d="M585.55,-287.7C594.23,-279.14 604.86,-268.66 614.35,-259.3"/>
<polygon fill="grey" stroke="grey" stroke-width="2" points="616.99,-261.62 621.65,-252.1 612.07,-256.63 616.99,-261.62"/>
</g>
<!-- 18 -->
<g id="node19" class="node">
<title>18</title>
<path fill="none" stroke="#56d89a" stroke-width="2" d="M494.5,-396C494.5,-396 425.5,-396 425.5,-396 419.5,-396 413.5,-390 413.5,-384 413.5,-384 413.5,-372 413.5,-372 413.5,-366 419.5,-360 425.5,-360 425.5,-360 494.5,-360 494.5,-360 500.5,-360 506.5,-366 506.5,-372 506.5,-372 506.5,-384 506.5,-384 506.5,-390 500.5,-396 494.5,-396"/>
<text text-anchor="middle" x="460" y="-375.5" font-family="sans" font-size="10.00">detect_patterns</text>
</g>
<!-- 18&#45;&gt;17 -->
<g id="edge29" class="edge">
<title>18&#45;&gt;17</title>
<path fill="none" stroke="grey" stroke-width="2" d="M486.42,-359.88C500.41,-350.81 517.78,-339.55 532.89,-329.76"/>
<polygon fill="grey" stroke="grey" stroke-width="2" points="534.99,-332.57 541.48,-324.19 531.18,-326.69 534.99,-332.57"/>
</g>
<!-- 24 -->
<g id="node25" class="node">
<title>24</title>
<path fill="none" stroke="#c6d856" stroke-width="2" d="M343,-324C343,-324 275,-324 275,-324 269,-324 263,-318 263,-312 263,-312 263,-300 263,-300 263,-294 269,-288 275,-288 275,-288 343,-288 343,-288 349,-288 355,-294 355,-300 355,-300 355,-312 355,-312 355,-318 349,-324 343,-324"/>
<text text-anchor="middle" x="309" y="-303.5" font-family="sans" font-size="10.00">pattern_change</text>
</g>
<!-- 18&#45;&gt;24 -->
<g id="edge41" class="edge">
<title>18&#45;&gt;24</title>
<path fill="none" stroke="grey" stroke-width="2" d="M423.06,-359.88C402.51,-350.35 376.75,-338.41 354.91,-328.28"/>
<polygon fill="grey" stroke="grey" stroke-width="2" points="356.36,-325.1 345.82,-324.07 353.42,-331.45 356.36,-325.1"/>
</g>
<!-- 19&#45;&gt;18 -->
<g id="edge31" class="edge">
<title>19&#45;&gt;18</title>
<path fill="none" stroke="grey" stroke-width="2" d="M460,-431.7C460,-423.98 460,-414.71 460,-406.11"/>
<polygon fill="grey" stroke="grey" stroke-width="2" points="463.5,-406.1 460,-396.1 456.5,-406.1 463.5,-406.1"/>
</g>
<!-- 20&#45;&gt;17 -->
<g id="edge28" class="edge">
<title>20&#45;&gt;17</title>
<path fill="none" stroke="grey" stroke-width="2" d="M623.4,-431.87C612.57,-407.46 592.59,-362.43 579.82,-333.64"/>
<polygon fill="grey" stroke="grey" stroke-width="2" points="582.88,-331.91 575.63,-324.19 576.48,-334.75 582.88,-331.91"/>
</g>
<!-- 20&#45;&gt;33 -->
<g id="edge52" class="edge">
<title>20&#45;&gt;33</title>
<path fill="none" stroke="grey" stroke-width="2" d="M654.48,-431.7C666.56,-422.8 681.45,-411.82 694.52,-402.2"/>
<polygon fill="grey" stroke="grey" stroke-width="2" points="696.81,-404.85 702.79,-396.1 692.66,-399.22 696.81,-404.85"/>
</g>
<!-- 21&#45;&gt;0 -->
<g id="edge10" class="edge">
<title>21&#45;&gt;0</title>
<path fill="none" stroke="grey" stroke-width="2" d="M257.29,-81.58C357.43,-67.36 574,-36.61 660.86,-24.27"/>
<polygon fill="grey" stroke="grey" stroke-width="2" points="661.38,-27.73 670.79,-22.86 660.4,-20.8 661.38,-27.73"/>
</g>
<!-- 22 -->
<g id="node23" class="node">
<title>22</title>
<path fill="none" stroke="#d86e56" stroke-width="2" d="M371.5,-180C371.5,-180 286.5,-180 286.5,-180 280.5,-180 274.5,-174 274.5,-168 274.5,-168 274.5,-156 274.5,-156 274.5,-150 280.5,-144 286.5,-144 286.5,-144 371.5,-144 371.5,-144 377.5,-144 383.5,-150 383.5,-156 383.5,-156 383.5,-168 383.5,-168 383.5,-174 377.5,-180 371.5,-180"/>
<text text-anchor="middle" x="329" y="-159.5" font-family="sans" font-size="10.00">bed_closest_genes</text>
</g>
<!-- 22&#45;&gt;21 -->
<g id="edge35" class="edge">
<title>22&#45;&gt;21</title>
<path fill="none" stroke="grey" stroke-width="2" d="M298.67,-143.88C282.3,-134.64 261.92,-123.13 244.35,-113.21"/>
<polygon fill="grey" stroke="grey" stroke-width="2" points="245.88,-110.06 235.45,-108.19 242.44,-116.15 245.88,-110.06"/>
</g>
<!-- 23 -->
<g id="node24" class="node">
<title>23</title>
<path fill="none" stroke="#8fd856" stroke-width="2" d="M512,-252C512,-252 420,-252 420,-252 414,-252 408,-246 408,-240 408,-240 408,-228 408,-228 408,-222 414,-216 420,-216 420,-216 512,-216 512,-216 518,-216 524,-222 524,-228 524,-228 524,-240 524,-240 524,-246 518,-252 512,-252"/>
<text text-anchor="middle" x="466" y="-231.5" font-family="sans" font-size="10.00">loop_change_to_bed</text>
</g>
<!-- 23&#45;&gt;22 -->
<g id="edge39" class="edge">
<title>23&#45;&gt;22</title>
<path fill="none" stroke="grey" stroke-width="2" d="M432.49,-215.88C414.16,-206.51 391.26,-194.81 371.67,-184.8"/>
<polygon fill="grey" stroke="grey" stroke-width="2" points="373.14,-181.62 362.64,-180.19 369.96,-187.86 373.14,-181.62"/>
</g>
<!-- 38 -->
<g id="node39" class="node">
<title>38</title>
<path fill="none" stroke="#d8c356" stroke-width="2" d="M592,-108C592,-108 470,-108 470,-108 464,-108 458,-102 458,-96 458,-96 458,-84 458,-84 458,-78 464,-72 470,-72 470,-72 592,-72 592,-72 598,-72 604,-78 604,-84 604,-84 604,-96 604,-96 604,-102 598,-108 592,-108"/>
<text text-anchor="middle" x="531" y="-87.5" font-family="sans" font-size="10.00">viz_loops_overlap_borders</text>
</g>
<!-- 23&#45;&gt;38 -->
<g id="edge63" class="edge">
<title>23&#45;&gt;38</title>
<path fill="none" stroke="grey" stroke-width="2" d="M462.67,-215.97C459.89,-197.31 457.94,-166.99 469,-144 474.52,-132.54 483.8,-122.59 493.52,-114.51"/>
<polygon fill="grey" stroke="grey" stroke-width="2" points="495.95,-117.06 501.72,-108.17 491.67,-111.52 495.95,-117.06"/>
</g>
<!-- 23&#45;&gt;39 -->
<g id="edge66" class="edge">
<title>23&#45;&gt;39</title>
<path fill="none" stroke="grey" stroke-width="2" d="M487.26,-215.7C498.09,-206.88 511.42,-196.03 523.16,-186.47"/>
<polygon fill="grey" stroke="grey" stroke-width="2" points="525.44,-189.13 530.99,-180.1 521.02,-183.7 525.44,-189.13"/>
</g>
<!-- 24&#45;&gt;23 -->
<g id="edge40" class="edge">
<title>24&#45;&gt;23</title>
<path fill="none" stroke="grey" stroke-width="2" d="M347.41,-287.88C368.87,-278.31 395.8,-266.3 418.57,-256.15"/>
<polygon fill="grey" stroke="grey" stroke-width="2" points="420.01,-259.34 427.72,-252.07 417.16,-252.94 420.01,-259.34"/>
</g>
<!-- 30 -->
<g id="node31" class="node">
<title>30</title>
<path fill="none" stroke="#68d856" stroke-width="2" d="M156,-252C156,-252 40,-252 40,-252 34,-252 28,-246 28,-240 28,-240 28,-228 28,-228 28,-222 34,-216 40,-216 40,-216 156,-216 156,-216 162,-216 168,-222 168,-228 168,-228 168,-240 168,-240 168,-246 162,-252 156,-252"/>
<text text-anchor="middle" x="98" y="-231.5" font-family="sans" font-size="10.00">perc_thresh_diff_patterns</text>
</g>
<!-- 24&#45;&gt;30 -->
<g id="edge49" class="edge">
<title>24&#45;&gt;30</title>
<path fill="none" stroke="grey" stroke-width="2" d="M262.96,-289.72C232.5,-279.62 192.22,-266.26 159.09,-255.27"/>
<polygon fill="grey" stroke="grey" stroke-width="2" points="160.09,-251.91 149.5,-252.09 157.89,-258.56 160.09,-251.91"/>
</g>
<!-- 31 -->
<g id="node32" class="node">
<title>31</title>
<path fill="none" stroke="#56c9d8" stroke-width="2" d="M377.5,-252C377.5,-252 274.5,-252 274.5,-252 268.5,-252 262.5,-246 262.5,-240 262.5,-240 262.5,-228 262.5,-228 262.5,-222 268.5,-216 274.5,-216 274.5,-216 377.5,-216 377.5,-216 383.5,-216 389.5,-222 389.5,-228 389.5,-228 389.5,-240 389.5,-240 389.5,-246 383.5,-252 377.5,-252"/>
<text text-anchor="middle" x="326" y="-231.5" font-family="sans" font-size="10.00">border_change_to_bed</text>
</g>
<!-- 24&#45;&gt;31 -->
<g id="edge50" class="edge">
<title>24&#45;&gt;31</title>
<path fill="none" stroke="grey" stroke-width="2" d="M313.2,-287.7C315.1,-279.9 317.38,-270.51 319.48,-261.83"/>
<polygon fill="grey" stroke="grey" stroke-width="2" points="322.89,-262.65 321.85,-252.1 316.08,-261 322.89,-262.65"/>
</g>
<!-- 37 -->
<g id="node38" class="node">
<title>37</title>
<path fill="none" stroke="#56d8c9" stroke-width="2" d="M244.5,-180C244.5,-180 119.5,-180 119.5,-180 113.5,-180 107.5,-174 107.5,-168 107.5,-168 107.5,-156 107.5,-156 107.5,-150 113.5,-144 119.5,-144 119.5,-144 244.5,-144 244.5,-144 250.5,-144 256.5,-150 256.5,-156 256.5,-156 256.5,-168 256.5,-168 256.5,-174 250.5,-180 244.5,-180"/>
<text text-anchor="middle" x="182" y="-159.5" font-family="sans" font-size="10.00">pattern_change_cutoff_hist</text>
</g>
<!-- 24&#45;&gt;37 -->
<g id="edge60" class="edge">
<title>24&#45;&gt;37</title>
<path fill="none" stroke="grey" stroke-width="2" d="M289.69,-287.96C278.59,-277.87 264.59,-264.62 253,-252 234.27,-231.61 214.78,-206.89 200.97,-188.68"/>
<polygon fill="grey" stroke="grey" stroke-width="2" points="203.48,-186.2 194.67,-180.31 197.89,-190.41 203.48,-186.2"/>
</g>
<!-- 25 -->
<g id="node26" class="node">
<title>25</title>
<path fill="none" stroke="#78d856" stroke-width="2" d="M345,-396C345,-396 271,-396 271,-396 265,-396 259,-390 259,-384 259,-384 259,-372 259,-372 259,-366 265,-360 271,-360 271,-360 345,-360 345,-360 351,-360 357,-366 357,-372 357,-372 357,-384 357,-384 357,-390 351,-396 345,-396"/>
<text text-anchor="middle" x="308" y="-375.5" font-family="sans" font-size="10.00">pseudo_rep_cool</text>
</g>
<!-- 25&#45;&gt;24 -->
<g id="edge42" class="edge">
<title>25&#45;&gt;24</title>
<path fill="none" stroke="grey" stroke-width="2" d="M308.25,-359.7C308.36,-351.98 308.49,-342.71 308.61,-334.11"/>
<polygon fill="grey" stroke="grey" stroke-width="2" points="312.11,-334.15 308.76,-324.1 305.11,-334.05 312.11,-334.15"/>
</g>
<!-- 26&#45;&gt;25 -->
<g id="edge43" class="edge">
<title>26&#45;&gt;25</title>
<path fill="none" stroke="grey" stroke-width="2" d="M292.94,-431.7C295.17,-423.9 297.85,-414.51 300.33,-405.83"/>
<polygon fill="grey" stroke="grey" stroke-width="2" points="303.73,-406.68 303.11,-396.1 297,-404.76 303.73,-406.68"/>
</g>
<!-- 27 -->
<g id="node28" class="node">
<title>27</title>
<path fill="none" stroke="#56d892" stroke-width="2" d="M331,-540C331,-540 239,-540 239,-540 233,-540 227,-534 227,-528 227,-528 227,-516 227,-516 227,-510 233,-504 239,-504 239,-504 331,-504 331,-504 337,-504 343,-510 343,-516 343,-516 343,-528 343,-528 343,-534 337,-540 331,-540"/>
<text text-anchor="middle" x="285" y="-519.5" font-family="sans" font-size="10.00">get_lowest_contacts</text>
</g>
<!-- 27&#45;&gt;26 -->
<g id="edge45" class="edge">
<title>27&#45;&gt;26</title>
<path fill="none" stroke="grey" stroke-width="2" d="M285.74,-503.7C286.07,-495.98 286.47,-486.71 286.84,-478.11"/>
<polygon fill="grey" stroke="grey" stroke-width="2" points="290.34,-478.25 287.27,-468.1 283.34,-477.95 290.34,-478.25"/>
</g>
<!-- 28&#45;&gt;27 -->
<g id="edge46" class="edge">
<title>28&#45;&gt;27</title>
<path fill="none" stroke="grey" stroke-width="2" d="M283.49,-575.7C283.71,-567.98 283.98,-558.71 284.23,-550.11"/>
<polygon fill="grey" stroke="grey" stroke-width="2" points="287.72,-550.2 284.51,-540.1 280.73,-550 287.72,-550.2"/>
</g>
<!-- 29&#45;&gt;22 -->
<g id="edge38" class="edge">
<title>29&#45;&gt;22</title>
<path fill="none" stroke="grey" stroke-width="2" d="M103,-863.95C103,-837.29 103,-784.11 103,-739 103,-739 103,-739 103,-377 103,-324.88 231.35,-229.78 294.6,-186.08"/>
<polygon fill="grey" stroke="grey" stroke-width="2" points="296.81,-188.81 303.07,-180.26 292.85,-183.04 296.81,-188.81"/>
</g>
<!-- 30&#45;&gt;21 -->
<g id="edge34" class="edge">
<title>30&#45;&gt;21</title>
<path fill="none" stroke="grey" stroke-width="2" d="M92.98,-215.81C88.49,-196.75 84.47,-165.79 98,-144 108.38,-127.28 125.78,-115.67 143.56,-107.68"/>
<polygon fill="grey" stroke="grey" stroke-width="2" points="144.97,-110.89 152.86,-103.82 142.28,-104.42 144.97,-110.89"/>
</g>
<!-- 30&#45;&gt;37 -->
<g id="edge59" class="edge">
<title>30&#45;&gt;37</title>
<path fill="none" stroke="grey" stroke-width="2" d="M118.76,-215.7C129.24,-206.97 142.11,-196.24 153.5,-186.75"/>
<polygon fill="grey" stroke="grey" stroke-width="2" points="156.03,-189.19 161.47,-180.1 151.55,-183.82 156.03,-189.19"/>
</g>
<!-- 31&#45;&gt;22 -->
<g id="edge37" class="edge">
<title>31&#45;&gt;22</title>
<path fill="none" stroke="grey" stroke-width="2" d="M326.74,-215.7C327.07,-207.98 327.47,-198.71 327.84,-190.11"/>
<polygon fill="grey" stroke="grey" stroke-width="2" points="331.34,-190.25 328.27,-180.1 324.34,-189.95 331.34,-190.25"/>
</g>
<!-- 31&#45;&gt;38 -->
<g id="edge61" class="edge">
<title>31&#45;&gt;38</title>
<path fill="none" stroke="grey" stroke-width="2" d="M350.73,-215.87C387.51,-190.39 456.72,-142.45 497.85,-113.96"/>
<polygon fill="grey" stroke="grey" stroke-width="2" points="499.96,-116.76 506.18,-108.19 495.97,-111.01 499.96,-116.76"/>
</g>
<!-- 31&#45;&gt;39 -->
<g id="edge64" class="edge">
<title>31&#45;&gt;39</title>
<path fill="none" stroke="grey" stroke-width="2" d="M381,-215.97C412.99,-206.06 453.48,-193.51 487.04,-183.12"/>
<polygon fill="grey" stroke="grey" stroke-width="2" points="488.24,-186.41 496.76,-180.11 486.17,-179.73 488.24,-186.41"/>
</g>
<!-- 32 -->
<g id="node33" class="node">
<title>32</title>
<path fill="none" stroke="#56d882" stroke-width="2" d="M756,-324C756,-324 696,-324 696,-324 690,-324 684,-318 684,-312 684,-312 684,-300 684,-300 684,-294 690,-288 696,-288 696,-288 756,-288 756,-288 762,-288 768,-294 768,-300 768,-300 768,-312 768,-312 768,-318 762,-324 756,-324"/>
<text text-anchor="middle" x="726" y="-303.5" font-family="sans" font-size="10.00">hicrep_matrix</text>
</g>
<!-- 32&#45;&gt;0 -->
<g id="edge5" class="edge">
<title>32&#45;&gt;0</title>
<path fill="none" stroke="grey" stroke-width="2" d="M724.33,-287.97C719.66,-240.19 706.38,-104.62 700.67,-46.27"/>
<polygon fill="grey" stroke="grey" stroke-width="2" points="704.15,-45.92 699.69,-36.31 697.19,-46.6 704.15,-45.92"/>
</g>
<!-- 33&#45;&gt;32 -->
<g id="edge51" class="edge">
<title>33&#45;&gt;32</title>
<path fill="none" stroke="grey" stroke-width="2" d="M726,-359.7C726,-351.98 726,-342.71 726,-334.11"/>
<polygon fill="grey" stroke="grey" stroke-width="2" points="729.5,-334.1 726,-324.1 722.5,-334.1 729.5,-334.1"/>
</g>
<!-- 34&#45;&gt;33 -->
<g id="edge53" class="edge">
<title>34&#45;&gt;33</title>
<path fill="none" stroke="grey" stroke-width="2" d="M782.46,-431.7C773.2,-423.05 761.84,-412.45 751.74,-403.03"/>
<polygon fill="grey" stroke="grey" stroke-width="2" points="754.02,-400.37 744.33,-396.1 749.25,-405.49 754.02,-400.37"/>
</g>
<!-- 35 -->
<g id="node36" class="node">
<title>35</title>
<path fill="none" stroke="#56d8b9" stroke-width="2" d="M754,-612C754,-612 674,-612 674,-612 668,-612 662,-606 662,-600 662,-600 662,-588 662,-588 662,-582 668,-576 674,-576 674,-576 754,-576 754,-576 760,-576 766,-582 766,-588 766,-588 766,-600 766,-600 766,-606 760,-612 754,-612"/>
<text text-anchor="middle" x="714" y="-591.5" font-family="sans" font-size="10.00">plot_distance_law</text>
</g>
<!-- 35&#45;&gt;0 -->
<g id="edge3" class="edge">
<title>35&#45;&gt;0</title>
<path fill="none" stroke="grey" stroke-width="2" d="M746.2,-575.99C780.96,-555.6 834.37,-517.84 857,-468 863.62,-453.43 859.91,-447.73 857,-432 828.6,-278.58 745.2,-108.68 711.94,-44.99"/>
<polygon fill="grey" stroke="grey" stroke-width="2" points="714.98,-43.25 707.22,-36.03 708.78,-46.51 714.98,-43.25"/>
</g>
<!-- 36&#45;&gt;35 -->
<g id="edge56" class="edge">
<title>36&#45;&gt;35</title>
<path fill="none" stroke="grey" stroke-width="2" d="M532.4,-647.97C568.7,-637.38 615.32,-623.78 652.23,-613.01"/>
<polygon fill="grey" stroke="grey" stroke-width="2" points="653.26,-616.36 661.88,-610.2 651.3,-609.64 653.26,-616.36"/>
</g>
<!-- 37&#45;&gt;0 -->
<g id="edge4" class="edge">
<title>37&#45;&gt;0</title>
<path fill="none" stroke="grey" stroke-width="2" d="M227.83,-143.98C280.63,-124.77 370.27,-93.43 449,-72 523.3,-51.78 611.79,-34.53 660.75,-25.58"/>
<polygon fill="grey" stroke="grey" stroke-width="2" points="661.65,-28.97 670.86,-23.74 660.4,-22.09 661.65,-28.97"/>
</g>
<!-- 38&#45;&gt;0 -->
<g id="edge9" class="edge">
<title>38&#45;&gt;0</title>
<path fill="none" stroke="grey" stroke-width="2" d="M571.85,-71.88C599.29,-60.38 635.12,-45.36 661.58,-34.27"/>
<polygon fill="grey" stroke="grey" stroke-width="2" points="663,-37.47 670.87,-30.37 660.29,-31.01 663,-37.47"/>
</g>
<!-- 39&#45;&gt;38 -->
<g id="edge62" class="edge">
<title>39&#45;&gt;38</title>
<path fill="none" stroke="grey" stroke-width="2" d="M546.81,-143.7C544.47,-135.9 541.65,-126.51 539.05,-117.83"/>
<polygon fill="grey" stroke="grey" stroke-width="2" points="542.36,-116.68 536.13,-108.1 535.65,-118.69 542.36,-116.68"/>
</g>
<!-- 40 -->
<g id="node41" class="node">
<title>40</title>
<path fill="none" stroke="#d85656" stroke-width="2" d="M924,-108C924,-108 844,-108 844,-108 838,-108 832,-102 832,-96 832,-96 832,-84 832,-84 832,-78 838,-72 844,-72 844,-72 924,-72 924,-72 930,-72 936,-78 936,-84 936,-84 936,-96 936,-96 936,-102 930,-108 924,-108"/>
<text text-anchor="middle" x="884" y="-87.5" font-family="sans" font-size="10.00">get_expr_vs_time</text>
</g>
<!-- 40&#45;&gt;0 -->
<g id="edge2" class="edge">
<title>40&#45;&gt;0</title>
<path fill="none" stroke="grey" stroke-width="2" d="M838.5,-71.88C806.61,-59.88 764.54,-44.04 734.78,-32.84"/>
<polygon fill="grey" stroke="grey" stroke-width="2" points="735.78,-29.48 725.18,-29.23 733.31,-36.03 735.78,-29.48"/>
</g>
<!-- 41 -->
<g id="node42" class="node">
<title>41</title>
<path fill="none" stroke="#56d8d8" stroke-width="2" d="M1049.5,-108C1049.5,-108 966.5,-108 966.5,-108 960.5,-108 954.5,-102 954.5,-96 954.5,-96 954.5,-84 954.5,-84 954.5,-78 960.5,-72 966.5,-72 966.5,-72 1049.5,-72 1049.5,-72 1055.5,-72 1061.5,-78 1061.5,-84 1061.5,-84 1061.5,-96 1061.5,-96 1061.5,-102 1055.5,-108 1049.5,-108"/>
<text text-anchor="middle" x="1008" y="-87.5" font-family="sans" font-size="10.00">convert_identifiers</text>
</g>
<!-- 41&#45;&gt;0 -->
<g id="edge7" class="edge">
<title>41&#45;&gt;0</title>
<path fill="none" stroke="grey" stroke-width="2" d="M954.43,-74.34C951.25,-73.53 948.08,-72.75 945,-72 870.93,-54.07 783.63,-36.07 735.17,-26.35"/>
<polygon fill="grey" stroke="grey" stroke-width="2" points="735.64,-22.87 725.15,-24.34 734.27,-29.74 735.64,-22.87"/>
</g>
<!-- 42 -->
<g id="node43" class="node">
<title>42</title>
<path fill="none" stroke="#56d8d0" stroke-width="2" d="M1161.5,-180C1161.5,-180 1052.5,-180 1052.5,-180 1046.5,-180 1040.5,-174 1040.5,-168 1040.5,-168 1040.5,-156 1040.5,-156 1040.5,-150 1046.5,-144 1052.5,-144 1052.5,-144 1161.5,-144 1161.5,-144 1167.5,-144 1173.5,-150 1173.5,-156 1173.5,-156 1173.5,-168 1173.5,-168 1173.5,-174 1167.5,-180 1161.5,-180"/>
<text text-anchor="middle" x="1107" y="-159.5" font-family="sans" font-size="10.00">map_neff_c3_identifiers</text>
</g>
<!-- 42&#45;&gt;41 -->
<g id="edge68" class="edge">
<title>42&#45;&gt;41</title>
<path fill="none" stroke="grey" stroke-width="2" d="M1082.78,-143.88C1070.08,-134.89 1054.34,-123.76 1040.58,-114.03"/>
<polygon fill="grey" stroke="grey" stroke-width="2" points="1042.5,-111.11 1032.31,-108.19 1038.46,-116.82 1042.5,-111.11"/>
</g>
<!-- 43 -->
<g id="node44" class="node">
<title>43</title>
<path fill="none" stroke="#5673d8" stroke-width="2" d="M1152,-252C1152,-252 1062,-252 1062,-252 1056,-252 1050,-246 1050,-240 1050,-240 1050,-228 1050,-228 1050,-222 1056,-216 1062,-216 1062,-216 1152,-216 1152,-216 1158,-216 1164,-222 1164,-228 1164,-228 1164,-240 1164,-240 1164,-246 1158,-252 1152,-252"/>
<text text-anchor="middle" x="1107" y="-231.5" font-family="sans" font-size="10.00">liftover_annotations</text>
</g>
<!-- 43&#45;&gt;42 -->
<g id="edge69" class="edge">
<title>43&#45;&gt;42</title>
<path fill="none" stroke="grey" stroke-width="2" d="M1107,-215.7C1107,-207.98 1107,-198.71 1107,-190.11"/>
<polygon fill="grey" stroke="grey" stroke-width="2" points="1110.5,-190.1 1107,-180.1 1103.5,-190.1 1110.5,-190.1"/>
</g>
<!-- 44 -->
<g id="node45" class="node">
<title>44</title>
<path fill="none" stroke="#56d8a9" stroke-width="2" d="M1010,-180C1010,-180 940,-180 940,-180 934,-180 928,-174 928,-168 928,-168 928,-156 928,-156 928,-150 934,-144 940,-144 940,-144 1010,-144 1010,-144 1016,-144 1022,-150 1022,-156 1022,-156 1022,-168 1022,-168 1022,-174 1016,-180 1010,-180"/>
<text text-anchor="middle" x="975" y="-159.5" font-family="sans" font-size="10.00">xls_to_diff_expr</text>
</g>
<!-- 44&#45;&gt;41 -->
<g id="edge67" class="edge">
<title>44&#45;&gt;41</title>
<path fill="none" stroke="grey" stroke-width="2" d="M983.16,-143.7C986.91,-135.73 991.45,-126.1 995.62,-117.26"/>
<polygon fill="grey" stroke="grey" stroke-width="2" points="998.84,-118.64 999.94,-108.1 992.51,-115.66 998.84,-118.64"/>
</g>
<!-- 45 -->
<g id="node46" class="node">
<title>45</title>
<path fill="none" stroke="#56a9d8" stroke-width="2" d="M1164.5,-108C1164.5,-108 1091.5,-108 1091.5,-108 1085.5,-108 1079.5,-102 1079.5,-96 1079.5,-96 1079.5,-84 1079.5,-84 1079.5,-78 1085.5,-72 1091.5,-72 1091.5,-72 1164.5,-72 1164.5,-72 1170.5,-72 1176.5,-78 1176.5,-84 1176.5,-84 1176.5,-96 1176.5,-96 1176.5,-102 1170.5,-108 1164.5,-108"/>
<text text-anchor="middle" x="1128" y="-87.5" font-family="sans" font-size="10.00">get_c3_diff_expr</text>
</g>
<!-- 45&#45;&gt;0 -->
<g id="edge8" class="edge">
<title>45&#45;&gt;0</title>
<path fill="none" stroke="grey" stroke-width="2" d="M1079.4,-74.2C1076.23,-73.41 1073.08,-72.67 1070,-72 948.96,-45.78 802.87,-29.3 735.44,-22.54"/>
<polygon fill="grey" stroke="grey" stroke-width="2" points="735.61,-19.04 725.31,-21.53 734.92,-26 735.61,-19.04"/>
</g>
</g>
</svg>
