<?xml version="1.0" encoding="UTF-8" standalone="no"?>
<!DOCTYPE svg PUBLIC "-//W3C//DTD SVG 1.1//EN"
 "http://www.w3.org/Graphics/SVG/1.1/DTD/svg11.dtd">
<!-- Generated by graphviz version 2.40.1 (20161225.0304)
 -->
<!-- Title: snakemake_dag Pages: 1 -->
<svg width="227pt" height="548pt"
 viewBox="0.00 0.00 227.00 548.00" xmlns="http://www.w3.org/2000/svg" xmlns:xlink="http://www.w3.org/1999/xlink">
<g id="graph0" class="graph" transform="scale(1 1) rotate(0) translate(4 544)">
<title>snakemake_dag</title>
<polygon fill="#ffffff" stroke="transparent" points="-4,4 -4,-544 223,-544 223,4 -4,4"/>
<!-- 0 -->
<g id="node1" class="node">
<title>0</title>
<path fill="none" stroke="#5682d8" stroke-width="2" d="M144.5,-36C144.5,-36 114.5,-36 114.5,-36 108.5,-36 102.5,-30 102.5,-24 102.5,-24 102.5,-12 102.5,-12 102.5,-6 108.5,0 114.5,0 114.5,0 144.5,0 144.5,0 150.5,0 156.5,-6 156.5,-12 156.5,-12 156.5,-24 156.5,-24 156.5,-30 150.5,-36 144.5,-36"/>
<text text-anchor="middle" x="129.5" y="-15.5" font-family="sans" font-size="10.00" fill="#000000">all</text>
</g>
<!-- 1 -->
<g id="node2" class="node">
<title>1</title>
<path fill="none" stroke="#56d882" stroke-width="2" d="M185.5,-108C185.5,-108 73.5,-108 73.5,-108 67.5,-108 61.5,-102 61.5,-96 61.5,-96 61.5,-84 61.5,-84 61.5,-78 67.5,-72 73.5,-72 73.5,-72 185.5,-72 185.5,-72 191.5,-72 197.5,-78 197.5,-84 197.5,-84 197.5,-96 197.5,-96 197.5,-102 191.5,-108 185.5,-108"/>
<text text-anchor="middle" x="129.5" y="-87.5" font-family="sans" font-size="10.00" fill="#000000">zoomify_normalize_cool</text>
</g>
<!-- 1&#45;&gt;0 -->
<g id="edge1" class="edge">
<title>1&#45;&gt;0</title>
<path fill="none" stroke="#c0c0c0" stroke-width="2" d="M129.5,-71.8314C129.5,-64.131 129.5,-54.9743 129.5,-46.4166"/>
<polygon fill="#c0c0c0" stroke="#c0c0c0" stroke-width="2" points="133.0001,-46.4132 129.5,-36.4133 126.0001,-46.4133 133.0001,-46.4132"/>
</g>
<!-- 2 -->
<g id="node3" class="node">
<title>2</title>
<path fill="none" stroke="#56d8a9" stroke-width="2" d="M158,-180C158,-180 101,-180 101,-180 95,-180 89,-174 89,-168 89,-168 89,-156 89,-156 89,-150 95,-144 101,-144 101,-144 158,-144 158,-144 164,-144 170,-150 170,-156 170,-156 170,-168 170,-168 170,-174 164,-180 158,-180"/>
<text text-anchor="middle" x="129.5" y="-159.5" font-family="sans" font-size="10.00" fill="#000000">pairs_to_cool</text>
</g>
<!-- 2&#45;&gt;1 -->
<g id="edge2" class="edge">
<title>2&#45;&gt;1</title>
<path fill="none" stroke="#c0c0c0" stroke-width="2" d="M129.5,-143.8314C129.5,-136.131 129.5,-126.9743 129.5,-118.4166"/>
<polygon fill="#c0c0c0" stroke="#c0c0c0" stroke-width="2" points="133.0001,-118.4132 129.5,-108.4133 126.0001,-118.4133 133.0001,-118.4132"/>
</g>
<!-- 3 -->
<g id="node4" class="node">
<title>3</title>
<path fill="none" stroke="#d8ac56" stroke-width="2" d="M112,-252C112,-252 47,-252 47,-252 41,-252 35,-246 35,-240 35,-240 35,-228 35,-228 35,-222 41,-216 47,-216 47,-216 112,-216 112,-216 118,-216 124,-222 124,-228 124,-228 124,-240 124,-240 124,-246 118,-252 112,-252"/>
<text text-anchor="middle" x="79.5" y="-231.5" font-family="sans" font-size="10.00" fill="#000000">generate_pairs</text>
</g>
<!-- 3&#45;&gt;2 -->
<g id="edge3" class="edge">
<title>3&#45;&gt;2</title>
<path fill="none" stroke="#c0c0c0" stroke-width="2" d="M92.1171,-215.8314C97.8172,-207.6232 104.6663,-197.7606 110.9359,-188.7323"/>
<polygon fill="#c0c0c0" stroke="#c0c0c0" stroke-width="2" points="113.8838,-190.6234 116.713,-180.4133 108.1342,-186.6306 113.8838,-190.6234"/>
</g>
<!-- 4 -->
<g id="node5" class="node">
<title>4</title>
<path fill="none" stroke="#afd856" stroke-width="2" d="M207,-252C207,-252 154,-252 154,-252 148,-252 142,-246 142,-240 142,-240 142,-228 142,-228 142,-222 148,-216 154,-216 154,-216 207,-216 207,-216 213,-216 219,-222 219,-228 219,-228 219,-240 219,-240 219,-246 213,-252 207,-252"/>
<text text-anchor="middle" x="180.5" y="-231.5" font-family="sans" font-size="10.00" fill="#000000">chrom_sizes</text>
</g>
<!-- 4&#45;&gt;2 -->
<g id="edge4" class="edge">
<title>4&#45;&gt;2</title>
<path fill="none" stroke="#c0c0c0" stroke-width="2" d="M167.6305,-215.8314C161.8165,-207.6232 154.8304,-197.7606 148.4354,-188.7323"/>
<polygon fill="#c0c0c0" stroke="#c0c0c0" stroke-width="2" points="151.179,-186.5505 142.5427,-180.4133 145.4669,-190.5966 151.179,-186.5505"/>
</g>
<!-- 5 -->
<g id="node6" class="node">
<title>5</title>
<path fill="none" stroke="#d88556" stroke-width="2" d="M134.5,-324C134.5,-324 24.5,-324 24.5,-324 18.5,-324 12.5,-318 12.5,-312 12.5,-312 12.5,-300 12.5,-300 12.5,-294 18.5,-288 24.5,-288 24.5,-288 134.5,-288 134.5,-288 140.5,-288 146.5,-294 146.5,-300 146.5,-300 146.5,-312 146.5,-312 146.5,-318 140.5,-324 134.5,-324"/>
<text text-anchor="middle" x="79.5" y="-303.5" font-family="sans" font-size="10.00" fill="#000000">merge_split_alignments</text>
</g>
<!-- 5&#45;&gt;3 -->
<g id="edge5" class="edge">
<title>5&#45;&gt;3</title>
<path fill="none" stroke="#c0c0c0" stroke-width="2" d="M79.5,-287.8314C79.5,-280.131 79.5,-270.9743 79.5,-262.4166"/>
<polygon fill="#c0c0c0" stroke="#c0c0c0" stroke-width="2" points="83.0001,-262.4132 79.5,-252.4133 76.0001,-262.4133 83.0001,-262.4132"/>
</g>
<!-- 6 -->
<g id="node7" class="node">
<title>6</title>
<path fill="none" stroke="#80d856" stroke-width="2" d="M121.5,-396C121.5,-396 37.5,-396 37.5,-396 31.5,-396 25.5,-390 25.5,-384 25.5,-384 25.5,-372 25.5,-372 25.5,-366 31.5,-360 37.5,-360 37.5,-360 121.5,-360 121.5,-360 127.5,-360 133.5,-366 133.5,-372 133.5,-372 133.5,-384 133.5,-384 133.5,-390 127.5,-396 121.5,-396"/>
<text text-anchor="middle" x="79.5" y="-375.5" font-family="sans" font-size="10.00" fill="#000000">split_iter_align_hic</text>
</g>
<!-- 6&#45;&gt;5 -->
<g id="edge6" class="edge">
<title>6&#45;&gt;5</title>
<path fill="none" stroke="#c0c0c0" stroke-width="2" d="M79.5,-359.8314C79.5,-352.131 79.5,-342.9743 79.5,-334.4166"/>
<polygon fill="#c0c0c0" stroke="#c0c0c0" stroke-width="2" points="83.0001,-334.4132 79.5,-324.4133 76.0001,-334.4133 83.0001,-334.4132"/>
</g>
<!-- 7 -->
<g id="node8" class="node">
<title>7</title>
<path fill="none" stroke="#56d8d8" stroke-width="2" d="M53,-468C53,-468 12,-468 12,-468 6,-468 0,-462 0,-456 0,-456 0,-444 0,-444 0,-438 6,-432 12,-432 12,-432 53,-432 53,-432 59,-432 65,-438 65,-444 65,-444 65,-456 65,-456 65,-462 59,-468 53,-468"/>
<text text-anchor="middle" x="32.5" y="-447.5" font-family="sans" font-size="10.00" fill="#000000">bt2_index</text>
</g>
<!-- 7&#45;&gt;6 -->
<g id="edge7" class="edge">
<title>7&#45;&gt;6</title>
<path fill="none" stroke="#c0c0c0" stroke-width="2" d="M44.3601,-431.8314C49.6629,-423.7079 56.0237,-413.9637 61.8673,-405.0118"/>
<polygon fill="#c0c0c0" stroke="#c0c0c0" stroke-width="2" points="64.9448,-406.7003 67.4802,-396.4133 59.0831,-402.8739 64.9448,-406.7003"/>
</g>
<!-- 8 -->
<g id="node9" class="node">
<title>8</title>
<path fill="none" stroke="#d6d856" stroke-width="2" d="M158,-468C158,-468 95,-468 95,-468 89,-468 83,-462 83,-456 83,-456 83,-444 83,-444 83,-438 89,-432 95,-432 95,-432 158,-432 158,-432 164,-432 170,-438 170,-444 170,-444 170,-456 170,-456 170,-462 164,-468 158,-468"/>
<text text-anchor="middle" x="126.5" y="-447.5" font-family="sans" font-size="10.00" fill="#000000">split_hic_fastq</text>
</g>
<!-- 8&#45;&gt;6 -->
<g id="edge8" class="edge">
<title>8&#45;&gt;6</title>
<path fill="none" stroke="#c0c0c0" stroke-width="2" d="M114.6399,-431.8314C109.3371,-423.7079 102.9763,-413.9637 97.1327,-405.0118"/>
<polygon fill="#c0c0c0" stroke="#c0c0c0" stroke-width="2" points="99.9169,-402.8739 91.5198,-396.4133 94.0552,-406.7003 99.9169,-402.8739"/>
</g>
<!-- 9 -->
<g id="node10" class="node">
<title>9</title>
<path fill="none" stroke="#59d856" stroke-width="2" d="M158.5,-540C158.5,-540 94.5,-540 94.5,-540 88.5,-540 82.5,-534 82.5,-528 82.5,-528 82.5,-516 82.5,-516 82.5,-510 88.5,-504 94.5,-504 94.5,-504 158.5,-504 158.5,-504 164.5,-504 170.5,-510 170.5,-516 170.5,-516 170.5,-528 170.5,-528 170.5,-534 164.5,-540 158.5,-540"/>
<text text-anchor="middle" x="126.5" y="-519.5" font-family="sans" font-size="10.00" fill="#000000">combine_units</text>
</g>
<!-- 9&#45;&gt;8 -->
<g id="edge9" class="edge">
<title>9&#45;&gt;8</title>
<path fill="none" stroke="#c0c0c0" stroke-width="2" d="M126.5,-503.8314C126.5,-496.131 126.5,-486.9743 126.5,-478.4166"/>
<polygon fill="#c0c0c0" stroke="#c0c0c0" stroke-width="2" points="130.0001,-478.4132 126.5,-468.4133 123.0001,-478.4133 130.0001,-478.4132"/>
</g>
</g>
</svg>
