<?xml version="1.0" encoding="UTF-8" standalone="no"?>
<!DOCTYPE svg PUBLIC "-//W3C//DTD SVG 1.1//EN"
 "http://www.w3.org/Graphics/SVG/1.1/DTD/svg11.dtd">
<!-- Generated by graphviz version 2.49.0 (20210829.0051)
 -->
<!-- Title: snakemake_dag Pages: 1 -->
<svg width="1239pt" height="1196pt"
 viewBox="0.00 0.00 1238.50 1196.00" xmlns="http://www.w3.org/2000/svg" xmlns:xlink="http://www.w3.org/1999/xlink">
<g id="graph0" class="graph" transform="scale(1 1) rotate(0) translate(4 1192)">
<title>snakemake_dag</title>
<polygon fill="white" stroke="transparent" points="-4,4 -4,-1192 1234.5,-1192 1234.5,4 -4,4"/>
<!-- 0 -->
<g id="node1" class="node">
<title>0</title>
<path fill="none" stroke="#d86e56" stroke-width="2" d="M666,-36C666,-36 636,-36 636,-36 630,-36 624,-30 624,-24 624,-24 624,-12 624,-12 624,-6 630,0 636,0 636,0 666,0 666,0 672,0 678,-6 678,-12 678,-12 678,-24 678,-24 678,-30 672,-36 666,-36"/>
<text text-anchor="middle" x="651" y="-15.5" font-family="sans" font-size="10.00">all</text>
</g>
<!-- 1 -->
<g id="node2" class="node">
<title>1</title>
<path fill="none" stroke="#5682d8" stroke-width="2" d="M246,-396C246,-396 160,-396 160,-396 154,-396 148,-390 148,-384 148,-384 148,-372 148,-372 148,-366 154,-360 160,-360 160,-360 246,-360 246,-360 252,-360 258,-366 258,-372 258,-372 258,-384 258,-384 258,-390 252,-396 246,-396"/>
<text text-anchor="middle" x="203" y="-375.5" font-family="sans" font-size="10.00">serpentine_binning</text>
</g>
<!-- 1&#45;&gt;0 -->
<g id="edge6" class="edge">
<title>1&#45;&gt;0</title>
<path fill="none" stroke="grey" stroke-width="2" d="M155.73,-359.96C111.35,-341.12 47.65,-306.09 19,-252 -7.11,-202.69 -12.14,-126.87 50,-72 92.29,-34.65 489.16,-22.63 613.76,-19.76"/>
<polygon fill="grey" stroke="grey" stroke-width="2" points="614.02,-23.25 623.94,-19.53 613.87,-16.25 614.02,-23.25"/>
</g>
<!-- 2 -->
<g id="node3" class="node">
<title>2</title>
<path fill="none" stroke="#d87556" stroke-width="2" d="M608.5,-540C608.5,-540 497.5,-540 497.5,-540 491.5,-540 485.5,-534 485.5,-528 485.5,-528 485.5,-516 485.5,-516 485.5,-510 491.5,-504 497.5,-504 497.5,-504 608.5,-504 608.5,-504 614.5,-504 620.5,-510 620.5,-516 620.5,-516 620.5,-528 620.5,-528 620.5,-534 614.5,-540 608.5,-540"/>
<text text-anchor="middle" x="553" y="-519.5" font-family="sans" font-size="10.00">zoomify_normalize_cool</text>
</g>
<!-- 2&#45;&gt;1 -->
<g id="edge10" class="edge">
<title>2&#45;&gt;1</title>
<path fill="none" stroke="grey" stroke-width="2" d="M497.43,-504C472.72,-495.16 443.87,-483.04 420,-468 400.04,-455.42 401.5,-443.67 381,-432 370.8,-426.19 314.59,-409.84 268.03,-396.82"/>
<polygon fill="grey" stroke="grey" stroke-width="2" points="268.83,-393.41 258.26,-394.1 266.95,-400.15 268.83,-393.41"/>
</g>
<!-- 17 -->
<g id="node18" class="node">
<title>17</title>
<path fill="none" stroke="#568ad8" stroke-width="2" d="M637,-324C637,-324 527,-324 527,-324 521,-324 515,-318 515,-312 515,-312 515,-300 515,-300 515,-294 521,-288 527,-288 527,-288 637,-288 637,-288 643,-288 649,-294 649,-300 649,-300 649,-312 649,-312 649,-318 643,-324 637,-324"/>
<text text-anchor="middle" x="582" y="-303.5" font-family="sans" font-size="10.00">quantify_pattern_scores</text>
</g>
<!-- 2&#45;&gt;17 -->
<g id="edge28" class="edge">
<title>2&#45;&gt;17</title>
<path fill="none" stroke="grey" stroke-width="2" d="M555.32,-503.85C560.34,-466.83 572.22,-379.18 578.29,-334.39"/>
<polygon fill="grey" stroke="grey" stroke-width="2" points="581.79,-334.61 579.66,-324.23 574.85,-333.67 581.79,-334.61"/>
</g>
<!-- 19 -->
<g id="node20" class="node">
<title>19</title>
<path fill="none" stroke="#56d89a" stroke-width="2" d="M513,-468C513,-468 441,-468 441,-468 435,-468 429,-462 429,-456 429,-456 429,-444 429,-444 429,-438 435,-432 441,-432 441,-432 513,-432 513,-432 519,-432 525,-438 525,-444 525,-444 525,-456 525,-456 525,-462 519,-468 513,-468"/>
<text text-anchor="middle" x="477" y="-447.5" font-family="sans" font-size="10.00">merge_matrices</text>
</g>
<!-- 2&#45;&gt;19 -->
<g id="edge31" class="edge">
<title>2&#45;&gt;19</title>
<path fill="none" stroke="grey" stroke-width="2" d="M534.21,-503.7C524.83,-495.05 513.32,-484.45 503.09,-475.03"/>
<polygon fill="grey" stroke="grey" stroke-width="2" points="505.3,-472.3 495.57,-468.1 500.55,-477.45 505.3,-472.3"/>
</g>
<!-- 20 -->
<g id="node21" class="node">
<title>20</title>
<path fill="none" stroke="#d8c356" stroke-width="2" d="M703,-468C703,-468 593,-468 593,-468 587,-468 581,-462 581,-456 581,-456 581,-444 581,-444 581,-438 587,-432 593,-432 593,-432 703,-432 703,-432 709,-432 715,-438 715,-444 715,-444 715,-456 715,-456 715,-462 709,-468 703,-468"/>
<text text-anchor="middle" x="648" y="-447.5" font-family="sans" font-size="10.00">find_subsampling_value</text>
</g>
<!-- 2&#45;&gt;20 -->
<g id="edge32" class="edge">
<title>2&#45;&gt;20</title>
<path fill="none" stroke="grey" stroke-width="2" d="M576.48,-503.7C588.56,-494.8 603.45,-483.82 616.52,-474.2"/>
<polygon fill="grey" stroke="grey" stroke-width="2" points="618.81,-476.85 624.79,-468.1 614.66,-471.22 618.81,-476.85"/>
</g>
<!-- 33 -->
<g id="node34" class="node">
<title>33</title>
<path fill="none" stroke="#5663d8" stroke-width="2" d="M762,-396C762,-396 718,-396 718,-396 712,-396 706,-390 706,-384 706,-384 706,-372 706,-372 706,-366 712,-360 718,-360 718,-360 762,-360 762,-360 768,-360 774,-366 774,-372 774,-372 774,-384 774,-384 774,-390 768,-396 762,-396"/>
<text text-anchor="middle" x="740" y="-375.5" font-family="sans" font-size="10.00">run_hicrep</text>
</g>
<!-- 2&#45;&gt;33 -->
<g id="edge52" class="edge">
<title>2&#45;&gt;33</title>
<path fill="none" stroke="grey" stroke-width="2" d="M620.86,-516.5C656.56,-510.53 698.16,-497.22 724,-468 738.74,-451.33 742.06,-425.83 742.09,-406.4"/>
<polygon fill="grey" stroke="grey" stroke-width="2" points="745.59,-406.22 741.82,-396.32 738.59,-406.41 745.59,-406.22"/>
</g>
<!-- 34 -->
<g id="node35" class="node">
<title>34</title>
<path fill="none" stroke="#a7d856" stroke-width="2" d="M853,-468C853,-468 783,-468 783,-468 777,-468 771,-462 771,-456 771,-456 771,-444 771,-444 771,-438 777,-432 783,-432 783,-432 853,-432 853,-432 859,-432 865,-438 865,-444 865,-444 865,-456 865,-456 865,-462 859,-468 853,-468"/>
<text text-anchor="middle" x="818" y="-447.5" font-family="sans" font-size="10.00">select_h_param</text>
</g>
<!-- 2&#45;&gt;34 -->
<g id="edge54" class="edge">
<title>2&#45;&gt;34</title>
<path fill="none" stroke="grey" stroke-width="2" d="M619.69,-503.99C659.58,-493.74 711.24,-480.32 757,-468 758.25,-467.66 759.52,-467.32 760.8,-466.97"/>
<polygon fill="grey" stroke="grey" stroke-width="2" points="762.01,-470.27 770.73,-464.26 760.17,-463.52 762.01,-470.27"/>
</g>
<!-- 3 -->
<g id="node4" class="node">
<title>3</title>
<path fill="none" stroke="#88d856" stroke-width="2" d="M372.5,-684C372.5,-684 315.5,-684 315.5,-684 309.5,-684 303.5,-678 303.5,-672 303.5,-672 303.5,-660 303.5,-660 303.5,-654 309.5,-648 315.5,-648 315.5,-648 372.5,-648 372.5,-648 378.5,-648 384.5,-654 384.5,-660 384.5,-660 384.5,-672 384.5,-672 384.5,-678 378.5,-684 372.5,-684"/>
<text text-anchor="middle" x="344" y="-663.5" font-family="sans" font-size="10.00">pairs_to_cool</text>
</g>
<!-- 3&#45;&gt;2 -->
<g id="edge11" class="edge">
<title>3&#45;&gt;2</title>
<path fill="none" stroke="grey" stroke-width="2" d="M369.21,-647.87C406.71,-622.39 477.27,-574.45 519.21,-545.96"/>
<polygon fill="grey" stroke="grey" stroke-width="2" points="521.4,-548.7 527.7,-540.19 517.46,-542.91 521.4,-548.7"/>
</g>
<!-- 26 -->
<g id="node27" class="node">
<title>26</title>
<path fill="none" stroke="#56d8d8" stroke-width="2" d="M360.5,-468C360.5,-468 249.5,-468 249.5,-468 243.5,-468 237.5,-462 237.5,-456 237.5,-456 237.5,-444 237.5,-444 237.5,-438 243.5,-432 249.5,-432 249.5,-432 360.5,-432 360.5,-432 366.5,-432 372.5,-438 372.5,-444 372.5,-444 372.5,-456 372.5,-456 372.5,-462 366.5,-468 360.5,-468"/>
<text text-anchor="middle" x="305" y="-447.5" font-family="sans" font-size="10.00">condition_merged_cools</text>
</g>
<!-- 3&#45;&gt;26 -->
<g id="edge44" class="edge">
<title>3&#45;&gt;26</title>
<path fill="none" stroke="grey" stroke-width="2" d="M355.05,-647.61C360.74,-637.62 367.08,-624.58 370,-612 374.01,-594.74 375.46,-517.49 369,-504 363.4,-492.3 353.83,-482.27 343.77,-474.19"/>
<polygon fill="grey" stroke="grey" stroke-width="2" points="345.78,-471.32 335.67,-468.14 341.59,-476.93 345.78,-471.32"/>
</g>
<!-- 28 -->
<g id="node29" class="node">
<title>28</title>
<path fill="none" stroke="#566bd8" stroke-width="2" d="M349,-612C349,-612 251,-612 251,-612 245,-612 239,-606 239,-600 239,-600 239,-588 239,-588 239,-582 245,-576 251,-576 251,-576 349,-576 349,-576 355,-576 361,-582 361,-588 361,-588 361,-600 361,-600 361,-606 355,-612 349,-612"/>
<text text-anchor="middle" x="300" y="-591.5" font-family="sans" font-size="10.00">get_merged_contacts</text>
</g>
<!-- 3&#45;&gt;28 -->
<g id="edge46" class="edge">
<title>3&#45;&gt;28</title>
<path fill="none" stroke="grey" stroke-width="2" d="M333.12,-647.7C328.01,-639.56 321.8,-629.69 316.16,-620.7"/>
<polygon fill="grey" stroke="grey" stroke-width="2" points="319.04,-618.71 310.75,-612.1 313.11,-622.43 319.04,-618.71"/>
</g>
<!-- 4 -->
<g id="node5" class="node">
<title>4</title>
<path fill="none" stroke="#56d8d0" stroke-width="2" d="M273.5,-756C273.5,-756 220.5,-756 220.5,-756 214.5,-756 208.5,-750 208.5,-744 208.5,-744 208.5,-732 208.5,-732 208.5,-726 214.5,-720 220.5,-720 220.5,-720 273.5,-720 273.5,-720 279.5,-720 285.5,-726 285.5,-732 285.5,-732 285.5,-744 285.5,-744 285.5,-750 279.5,-756 273.5,-756"/>
<text text-anchor="middle" x="247" y="-735.5" font-family="sans" font-size="10.00">chrom_sizes</text>
</g>
<!-- 4&#45;&gt;3 -->
<g id="edge13" class="edge">
<title>4&#45;&gt;3</title>
<path fill="none" stroke="grey" stroke-width="2" d="M270.98,-719.7C283.31,-710.8 298.52,-699.82 311.85,-690.2"/>
<polygon fill="grey" stroke="grey" stroke-width="2" points="314.24,-692.79 320.3,-684.1 310.14,-687.12 314.24,-692.79"/>
</g>
<!-- 39 -->
<g id="node40" class="node">
<title>39</title>
<path fill="none" stroke="#56b9d8" stroke-width="2" d="M611,-180C611,-180 487,-180 487,-180 481,-180 475,-174 475,-168 475,-168 475,-156 475,-156 475,-150 481,-144 487,-144 487,-144 611,-144 611,-144 617,-144 623,-150 623,-156 623,-156 623,-168 623,-168 623,-174 617,-180 611,-180"/>
<text text-anchor="middle" x="549" y="-159.5" font-family="sans" font-size="10.00">get_loops_overlap_borders</text>
</g>
<!-- 4&#45;&gt;39 -->
<g id="edge64" class="edge">
<title>4&#45;&gt;39</title>
<path fill="none" stroke="grey" stroke-width="2" d="M239.31,-719.91C228.21,-693.62 209,-641.45 209,-595 209,-595 209,-595 209,-521 209,-480.55 199.66,-460.85 228,-432 277.56,-381.55 320.82,-429.7 383,-396 384.27,-395.31 532.32,-253.27 533,-252 543.23,-232.91 547.08,-208.56 548.45,-190.15"/>
<polygon fill="grey" stroke="grey" stroke-width="2" points="551.95,-190.26 549.01,-180.09 544.96,-189.88 551.95,-190.26"/>
</g>
<!-- 5 -->
<g id="node6" class="node">
<title>5</title>
<path fill="none" stroke="#c6d856" stroke-width="2" d="M271,-1044C271,-1044 211,-1044 211,-1044 205,-1044 199,-1038 199,-1032 199,-1032 199,-1020 199,-1020 199,-1014 205,-1008 211,-1008 211,-1008 271,-1008 271,-1008 277,-1008 283,-1014 283,-1020 283,-1020 283,-1032 283,-1032 283,-1038 277,-1044 271,-1044"/>
<text text-anchor="middle" x="241" y="-1023.5" font-family="sans" font-size="10.00">filter_genome</text>
</g>
<!-- 5&#45;&gt;4 -->
<g id="edge15" class="edge">
<title>5&#45;&gt;4</title>
<path fill="none" stroke="grey" stroke-width="2" d="M238.97,-1007.98C234.73,-969.4 226.01,-872.43 235,-792 235.96,-783.43 237.76,-774.22 239.69,-765.93"/>
<polygon fill="grey" stroke="grey" stroke-width="2" points="243.13,-766.57 242.13,-756.02 236.34,-764.89 243.13,-766.57"/>
</g>
<!-- 7 -->
<g id="node8" class="node">
<title>7</title>
<path fill="none" stroke="#56d87b" stroke-width="2" d="M324,-828C324,-828 256,-828 256,-828 250,-828 244,-822 244,-816 244,-816 244,-804 244,-804 244,-798 250,-792 256,-792 256,-792 324,-792 324,-792 330,-792 336,-798 336,-804 336,-804 336,-816 336,-816 336,-822 330,-828 324,-828"/>
<text text-anchor="middle" x="290" y="-807.5" font-family="sans" font-size="10.00">digest_genome</text>
</g>
<!-- 5&#45;&gt;7 -->
<g id="edge17" class="edge">
<title>5&#45;&gt;7</title>
<path fill="none" stroke="grey" stroke-width="2" d="M244.93,-1007.85C253.42,-970.75 273.56,-882.81 283.79,-838.1"/>
<polygon fill="grey" stroke="grey" stroke-width="2" points="287.23,-838.76 286.05,-828.23 280.41,-837.2 287.23,-838.76"/>
</g>
<!-- 11 -->
<g id="node12" class="node">
<title>11</title>
<path fill="none" stroke="#68d856" stroke-width="2" d="M344.5,-972C344.5,-972 303.5,-972 303.5,-972 297.5,-972 291.5,-966 291.5,-960 291.5,-960 291.5,-948 291.5,-948 291.5,-942 297.5,-936 303.5,-936 303.5,-936 344.5,-936 344.5,-936 350.5,-936 356.5,-942 356.5,-948 356.5,-948 356.5,-960 356.5,-960 356.5,-966 350.5,-972 344.5,-972"/>
<text text-anchor="middle" x="324" y="-951.5" font-family="sans" font-size="10.00">bt2_index</text>
</g>
<!-- 5&#45;&gt;11 -->
<g id="edge22" class="edge">
<title>5&#45;&gt;11</title>
<path fill="none" stroke="grey" stroke-width="2" d="M261.52,-1007.7C271.87,-998.97 284.59,-988.24 295.84,-978.75"/>
<polygon fill="grey" stroke="grey" stroke-width="2" points="298.33,-981.23 303.72,-972.1 293.82,-975.88 298.33,-981.23"/>
</g>
<!-- 6 -->
<g id="node7" class="node">
<title>6</title>
<path fill="none" stroke="#56c9d8" stroke-width="2" d="M163,-1116C163,-1116 77,-1116 77,-1116 71,-1116 65,-1110 65,-1104 65,-1104 65,-1092 65,-1092 65,-1086 71,-1080 77,-1080 77,-1080 163,-1080 163,-1080 169,-1080 175,-1086 175,-1092 175,-1092 175,-1104 175,-1104 175,-1110 169,-1116 163,-1116"/>
<text text-anchor="middle" x="120" y="-1095.5" font-family="sans" font-size="10.00">get_zenodo_assets</text>
</g>
<!-- 6&#45;&gt;5 -->
<g id="edge16" class="edge">
<title>6&#45;&gt;5</title>
<path fill="none" stroke="grey" stroke-width="2" d="M149.6,-1079.88C165.57,-1070.64 185.46,-1059.13 202.61,-1049.21"/>
<polygon fill="grey" stroke="grey" stroke-width="2" points="204.38,-1052.23 211.29,-1044.19 200.88,-1046.17 204.38,-1052.23"/>
</g>
<!-- 21 -->
<g id="node22" class="node">
<title>21</title>
<path fill="none" stroke="#56d882" stroke-width="2" d="M151,-108C151,-108 71,-108 71,-108 65,-108 59,-102 59,-96 59,-96 59,-84 59,-84 59,-78 65,-72 71,-72 71,-72 151,-72 151,-72 157,-72 163,-78 163,-84 163,-84 163,-96 163,-96 163,-102 157,-108 151,-108"/>
<text text-anchor="middle" x="111" y="-87.5" font-family="sans" font-size="10.00">go_enrich_change</text>
</g>
<!-- 6&#45;&gt;21 -->
<g id="edge34" class="edge">
<title>6&#45;&gt;21</title>
<path fill="none" stroke="grey" stroke-width="2" d="M90.95,-1079.91C55.44,-1056.58 0,-1011.16 0,-955 0,-955 0,-955 0,-233 0,-182.59 43.96,-139.39 76.55,-114.29"/>
<polygon fill="grey" stroke="grey" stroke-width="2" points="79.05,-116.79 84.98,-108 74.87,-111.18 79.05,-116.79"/>
</g>
<!-- 29 -->
<g id="node30" class="node">
<title>29</title>
<path fill="none" stroke="#56a2d8" stroke-width="2" d="M149.5,-900C149.5,-900 90.5,-900 90.5,-900 84.5,-900 78.5,-894 78.5,-888 78.5,-888 78.5,-876 78.5,-876 78.5,-870 84.5,-864 90.5,-864 90.5,-864 149.5,-864 149.5,-864 155.5,-864 161.5,-870 161.5,-876 161.5,-876 161.5,-888 161.5,-888 161.5,-894 155.5,-900 149.5,-900"/>
<text text-anchor="middle" x="120" y="-879.5" font-family="sans" font-size="10.00">annot_to_bed</text>
</g>
<!-- 6&#45;&gt;29 -->
<g id="edge47" class="edge">
<title>6&#45;&gt;29</title>
<path fill="none" stroke="grey" stroke-width="2" d="M120,-1079.85C120,-1042.83 120,-955.18 120,-910.39"/>
<polygon fill="grey" stroke="grey" stroke-width="2" points="123.5,-910.23 120,-900.23 116.5,-910.23 123.5,-910.23"/>
</g>
<!-- 7&#45;&gt;4 -->
<g id="edge14" class="edge">
<title>7&#45;&gt;4</title>
<path fill="none" stroke="grey" stroke-width="2" d="M279.37,-791.7C274.37,-783.56 268.31,-773.69 262.79,-764.7"/>
<polygon fill="grey" stroke="grey" stroke-width="2" points="265.72,-762.79 257.51,-756.1 259.76,-766.46 265.72,-762.79"/>
</g>
<!-- 36 -->
<g id="node37" class="node">
<title>36</title>
<path fill="none" stroke="#78d856" stroke-width="2" d="M567,-684C567,-684 415,-684 415,-684 409,-684 403,-678 403,-672 403,-672 403,-660 403,-660 403,-654 409,-648 415,-648 415,-648 567,-648 567,-648 573,-648 579,-654 579,-660 579,-660 579,-672 579,-672 579,-678 573,-684 567,-684"/>
<text text-anchor="middle" x="491" y="-663.5" font-family="sans" font-size="10.00">compute_genomic_distance_law</text>
</g>
<!-- 7&#45;&gt;36 -->
<g id="edge56" class="edge">
<title>7&#45;&gt;36</title>
<path fill="none" stroke="grey" stroke-width="2" d="M301.21,-791.86C314.78,-772.25 339.28,-740.24 367,-720 385.04,-706.83 406.85,-696.11 427.12,-687.86"/>
<polygon fill="grey" stroke="grey" stroke-width="2" points="428.59,-691.04 436.61,-684.12 426.02,-684.52 428.59,-691.04"/>
</g>
<!-- 8 -->
<g id="node9" class="node">
<title>8</title>
<path fill="none" stroke="#bed856" stroke-width="2" d="M453.5,-756C453.5,-756 388.5,-756 388.5,-756 382.5,-756 376.5,-750 376.5,-744 376.5,-744 376.5,-732 376.5,-732 376.5,-726 382.5,-720 388.5,-720 388.5,-720 453.5,-720 453.5,-720 459.5,-720 465.5,-726 465.5,-732 465.5,-732 465.5,-744 465.5,-744 465.5,-750 459.5,-756 453.5,-756"/>
<text text-anchor="middle" x="421" y="-735.5" font-family="sans" font-size="10.00">generate_pairs</text>
</g>
<!-- 8&#45;&gt;3 -->
<g id="edge12" class="edge">
<title>8&#45;&gt;3</title>
<path fill="none" stroke="grey" stroke-width="2" d="M401.97,-719.7C392.46,-711.05 380.79,-700.45 370.43,-691.03"/>
<polygon fill="grey" stroke="grey" stroke-width="2" points="372.57,-688.24 362.81,-684.1 367.86,-693.42 372.57,-688.24"/>
</g>
<!-- 8&#45;&gt;36 -->
<g id="edge57" class="edge">
<title>8&#45;&gt;36</title>
<path fill="none" stroke="grey" stroke-width="2" d="M438.3,-719.7C446.86,-711.14 457.34,-700.66 466.7,-691.3"/>
<polygon fill="grey" stroke="grey" stroke-width="2" points="469.3,-693.65 473.9,-684.1 464.35,-688.7 469.3,-693.65"/>
</g>
<!-- 9 -->
<g id="node10" class="node">
<title>9</title>
<path fill="none" stroke="#56d8c9" stroke-width="2" d="M476,-828C476,-828 366,-828 366,-828 360,-828 354,-822 354,-816 354,-816 354,-804 354,-804 354,-798 360,-792 366,-792 366,-792 476,-792 476,-792 482,-792 488,-798 488,-804 488,-804 488,-816 488,-816 488,-822 482,-828 476,-828"/>
<text text-anchor="middle" x="421" y="-807.5" font-family="sans" font-size="10.00">merge_split_alignments</text>
</g>
<!-- 9&#45;&gt;8 -->
<g id="edge18" class="edge">
<title>9&#45;&gt;8</title>
<path fill="none" stroke="grey" stroke-width="2" d="M421,-791.7C421,-783.98 421,-774.71 421,-766.11"/>
<polygon fill="grey" stroke="grey" stroke-width="2" points="424.5,-766.1 421,-756.1 417.5,-766.1 424.5,-766.1"/>
</g>
<!-- 10 -->
<g id="node11" class="node">
<title>10</title>
<path fill="none" stroke="#d8ac56" stroke-width="2" d="M450,-900C450,-900 388,-900 388,-900 382,-900 376,-894 376,-888 376,-888 376,-876 376,-876 376,-870 382,-864 388,-864 388,-864 450,-864 450,-864 456,-864 462,-870 462,-876 462,-876 462,-888 462,-888 462,-894 456,-900 450,-900"/>
<text text-anchor="middle" x="419" y="-879.5" font-family="sans" font-size="10.00">split_align_hic</text>
</g>
<!-- 10&#45;&gt;9 -->
<g id="edge19" class="edge">
<title>10&#45;&gt;9</title>
<path fill="none" stroke="grey" stroke-width="2" d="M419.49,-863.7C419.71,-855.98 419.98,-846.71 420.23,-838.11"/>
<polygon fill="grey" stroke="grey" stroke-width="2" points="423.72,-838.2 420.51,-828.1 416.73,-838 423.72,-838.2"/>
</g>
<!-- 11&#45;&gt;10 -->
<g id="edge21" class="edge">
<title>11&#45;&gt;10</title>
<path fill="none" stroke="grey" stroke-width="2" d="M347.48,-935.7C359.56,-926.8 374.45,-915.82 387.52,-906.2"/>
<polygon fill="grey" stroke="grey" stroke-width="2" points="389.81,-908.85 395.79,-900.1 385.66,-903.22 389.81,-908.85"/>
</g>
<!-- 12 -->
<g id="node13" class="node">
<title>12</title>
<path fill="none" stroke="#56d85b" stroke-width="2" d="M450.5,-972C450.5,-972 387.5,-972 387.5,-972 381.5,-972 375.5,-966 375.5,-960 375.5,-960 375.5,-948 375.5,-948 375.5,-942 381.5,-936 387.5,-936 387.5,-936 450.5,-936 450.5,-936 456.5,-936 462.5,-942 462.5,-948 462.5,-948 462.5,-960 462.5,-960 462.5,-966 456.5,-972 450.5,-972"/>
<text text-anchor="middle" x="419" y="-951.5" font-family="sans" font-size="10.00">split_hic_fastq</text>
</g>
<!-- 12&#45;&gt;10 -->
<g id="edge20" class="edge">
<title>12&#45;&gt;10</title>
<path fill="none" stroke="grey" stroke-width="2" d="M419,-935.7C419,-927.98 419,-918.71 419,-910.11"/>
<polygon fill="grey" stroke="grey" stroke-width="2" points="422.5,-910.1 419,-900.1 415.5,-910.1 422.5,-910.1"/>
</g>
<!-- 13 -->
<g id="node14" class="node">
<title>13</title>
<path fill="none" stroke="#56a9d8" stroke-width="2" d="M451,-1044C451,-1044 387,-1044 387,-1044 381,-1044 375,-1038 375,-1032 375,-1032 375,-1020 375,-1020 375,-1014 381,-1008 387,-1008 387,-1008 451,-1008 451,-1008 457,-1008 463,-1014 463,-1020 463,-1020 463,-1032 463,-1032 463,-1038 457,-1044 451,-1044"/>
<text text-anchor="middle" x="419" y="-1023.5" font-family="sans" font-size="10.00">combine_units</text>
</g>
<!-- 13&#45;&gt;12 -->
<g id="edge23" class="edge">
<title>13&#45;&gt;12</title>
<path fill="none" stroke="grey" stroke-width="2" d="M419,-1007.7C419,-999.98 419,-990.71 419,-982.11"/>
<polygon fill="grey" stroke="grey" stroke-width="2" points="422.5,-982.1 419,-972.1 415.5,-982.1 422.5,-982.1"/>
</g>
<!-- 14 -->
<g id="node15" class="node">
<title>14</title>
<path fill="none" stroke="#d88d56" stroke-width="2" d="M438,-1116C438,-1116 400,-1116 400,-1116 394,-1116 388,-1110 388,-1104 388,-1104 388,-1092 388,-1092 388,-1086 394,-1080 400,-1080 400,-1080 438,-1080 438,-1080 444,-1080 450,-1086 450,-1092 450,-1092 450,-1104 450,-1104 450,-1110 444,-1116 438,-1116"/>
<text text-anchor="middle" x="419" y="-1095.5" font-family="sans" font-size="10.00">sra_to_fq</text>
</g>
<!-- 14&#45;&gt;13 -->
<g id="edge24" class="edge">
<title>14&#45;&gt;13</title>
<path fill="none" stroke="grey" stroke-width="2" d="M419,-1079.7C419,-1071.98 419,-1062.71 419,-1054.11"/>
<polygon fill="grey" stroke="grey" stroke-width="2" points="422.5,-1054.1 419,-1044.1 415.5,-1054.1 422.5,-1054.1"/>
</g>
<!-- 15 -->
<g id="node16" class="node">
<title>15</title>
<path fill="none" stroke="#70d856" stroke-width="2" d="M434,-1188C434,-1188 404,-1188 404,-1188 398,-1188 392,-1182 392,-1176 392,-1176 392,-1164 392,-1164 392,-1158 398,-1152 404,-1152 404,-1152 434,-1152 434,-1152 440,-1152 446,-1158 446,-1164 446,-1164 446,-1176 446,-1176 446,-1182 440,-1188 434,-1188"/>
<text text-anchor="middle" x="419" y="-1167.5" font-family="sans" font-size="10.00">dl_sra</text>
</g>
<!-- 15&#45;&gt;14 -->
<g id="edge25" class="edge">
<title>15&#45;&gt;14</title>
<path fill="none" stroke="grey" stroke-width="2" d="M419,-1151.7C419,-1143.98 419,-1134.71 419,-1126.11"/>
<polygon fill="grey" stroke="grey" stroke-width="2" points="422.5,-1126.1 419,-1116.1 415.5,-1126.1 422.5,-1126.1"/>
</g>
<!-- 16 -->
<g id="node17" class="node">
<title>16</title>
<path fill="none" stroke="#56d863" stroke-width="2" d="M698,-108C698,-108 604,-108 604,-108 598,-108 592,-102 592,-96 592,-96 592,-84 592,-84 592,-78 598,-72 604,-72 604,-72 698,-72 698,-72 704,-72 710,-78 710,-84 710,-84 710,-96 710,-96 710,-102 704,-108 698,-108"/>
<text text-anchor="middle" x="651" y="-87.5" font-family="sans" font-size="10.00">plot_patterns_scores</text>
</g>
<!-- 16&#45;&gt;0 -->
<g id="edge8" class="edge">
<title>16&#45;&gt;0</title>
<path fill="none" stroke="grey" stroke-width="2" d="M651,-71.7C651,-63.98 651,-54.71 651,-46.11"/>
<polygon fill="grey" stroke="grey" stroke-width="2" points="654.5,-46.1 651,-36.1 647.5,-46.1 654.5,-46.1"/>
</g>
<!-- 17&#45;&gt;16 -->
<g id="edge26" class="edge">
<title>17&#45;&gt;16</title>
<path fill="none" stroke="grey" stroke-width="2" d="M589.9,-287.94C600.66,-264.18 619.96,-219.58 632,-180 638.2,-159.63 643.14,-136.03 646.42,-118.26"/>
<polygon fill="grey" stroke="grey" stroke-width="2" points="649.89,-118.74 648.21,-108.28 643,-117.51 649.89,-118.74"/>
</g>
<!-- 18 -->
<g id="node19" class="node">
<title>18</title>
<path fill="none" stroke="#d8b456" stroke-width="2" d="M511.5,-396C511.5,-396 442.5,-396 442.5,-396 436.5,-396 430.5,-390 430.5,-384 430.5,-384 430.5,-372 430.5,-372 430.5,-366 436.5,-360 442.5,-360 442.5,-360 511.5,-360 511.5,-360 517.5,-360 523.5,-366 523.5,-372 523.5,-372 523.5,-384 523.5,-384 523.5,-390 517.5,-396 511.5,-396"/>
<text text-anchor="middle" x="477" y="-375.5" font-family="sans" font-size="10.00">detect_patterns</text>
</g>
<!-- 18&#45;&gt;17 -->
<g id="edge29" class="edge">
<title>18&#45;&gt;17</title>
<path fill="none" stroke="grey" stroke-width="2" d="M502.69,-359.88C516.29,-350.81 533.17,-339.55 547.86,-329.76"/>
<polygon fill="grey" stroke="grey" stroke-width="2" points="549.84,-332.65 556.22,-324.19 545.95,-326.82 549.84,-332.65"/>
</g>
<!-- 24 -->
<g id="node25" class="node">
<title>24</title>
<path fill="none" stroke="#5692d8" stroke-width="2" d="M359,-324C359,-324 291,-324 291,-324 285,-324 279,-318 279,-312 279,-312 279,-300 279,-300 279,-294 285,-288 291,-288 291,-288 359,-288 359,-288 365,-288 371,-294 371,-300 371,-300 371,-312 371,-312 371,-318 365,-324 359,-324"/>
<text text-anchor="middle" x="325" y="-303.5" font-family="sans" font-size="10.00">pattern_change</text>
</g>
<!-- 18&#45;&gt;24 -->
<g id="edge41" class="edge">
<title>18&#45;&gt;24</title>
<path fill="none" stroke="grey" stroke-width="2" d="M439.82,-359.88C419.13,-350.35 393.2,-338.41 371.22,-328.28"/>
<polygon fill="grey" stroke="grey" stroke-width="2" points="372.61,-325.07 362.06,-324.07 369.68,-331.43 372.61,-325.07"/>
</g>
<!-- 19&#45;&gt;18 -->
<g id="edge30" class="edge">
<title>19&#45;&gt;18</title>
<path fill="none" stroke="grey" stroke-width="2" d="M477,-431.7C477,-423.98 477,-414.71 477,-406.11"/>
<polygon fill="grey" stroke="grey" stroke-width="2" points="480.5,-406.1 477,-396.1 473.5,-406.1 480.5,-406.1"/>
</g>
<!-- 20&#45;&gt;17 -->
<g id="edge27" class="edge">
<title>20&#45;&gt;17</title>
<path fill="none" stroke="grey" stroke-width="2" d="M640.04,-431.87C628.64,-407.35 607.58,-362.03 594.2,-333.26"/>
<polygon fill="grey" stroke="grey" stroke-width="2" points="597.38,-331.78 589.99,-324.19 591.03,-334.73 597.38,-331.78"/>
</g>
<!-- 20&#45;&gt;33 -->
<g id="edge53" class="edge">
<title>20&#45;&gt;33</title>
<path fill="none" stroke="grey" stroke-width="2" d="M670.74,-431.7C682.44,-422.8 696.86,-411.82 709.51,-402.2"/>
<polygon fill="grey" stroke="grey" stroke-width="2" points="711.68,-404.94 717.52,-396.1 707.44,-399.37 711.68,-404.94"/>
</g>
<!-- 21&#45;&gt;0 -->
<g id="edge3" class="edge">
<title>21&#45;&gt;0</title>
<path fill="none" stroke="grey" stroke-width="2" d="M163.27,-82.22C271.84,-68.15 519.5,-36.05 613.69,-23.84"/>
<polygon fill="grey" stroke="grey" stroke-width="2" points="614.42,-27.27 623.88,-22.51 613.52,-20.33 614.42,-27.27"/>
</g>
<!-- 22 -->
<g id="node23" class="node">
<title>22</title>
<path fill="none" stroke="#afd856" stroke-width="2" d="M368.5,-180C368.5,-180 283.5,-180 283.5,-180 277.5,-180 271.5,-174 271.5,-168 271.5,-168 271.5,-156 271.5,-156 271.5,-150 277.5,-144 283.5,-144 283.5,-144 368.5,-144 368.5,-144 374.5,-144 380.5,-150 380.5,-156 380.5,-156 380.5,-168 380.5,-168 380.5,-174 374.5,-180 368.5,-180"/>
<text text-anchor="middle" x="326" y="-159.5" font-family="sans" font-size="10.00">bed_closest_genes</text>
</g>
<!-- 22&#45;&gt;21 -->
<g id="edge35" class="edge">
<title>22&#45;&gt;21</title>
<path fill="none" stroke="grey" stroke-width="2" d="M273.68,-143.97C243.27,-134.06 204.77,-121.53 172.86,-111.14"/>
<polygon fill="grey" stroke="grey" stroke-width="2" points="173.77,-107.76 163.18,-107.99 171.61,-114.41 173.77,-107.76"/>
</g>
<!-- 23 -->
<g id="node24" class="node">
<title>23</title>
<path fill="none" stroke="#56d8b1" stroke-width="2" d="M512,-252C512,-252 420,-252 420,-252 414,-252 408,-246 408,-240 408,-240 408,-228 408,-228 408,-222 414,-216 420,-216 420,-216 512,-216 512,-216 518,-216 524,-222 524,-228 524,-228 524,-240 524,-240 524,-246 518,-252 512,-252"/>
<text text-anchor="middle" x="466" y="-231.5" font-family="sans" font-size="10.00">loop_change_to_bed</text>
</g>
<!-- 23&#45;&gt;22 -->
<g id="edge37" class="edge">
<title>23&#45;&gt;22</title>
<path fill="none" stroke="grey" stroke-width="2" d="M431.75,-215.88C412.94,-206.47 389.42,-194.71 369.33,-184.67"/>
<polygon fill="grey" stroke="grey" stroke-width="2" points="370.89,-181.53 360.38,-180.19 367.76,-187.79 370.89,-181.53"/>
</g>
<!-- 38 -->
<g id="node39" class="node">
<title>38</title>
<path fill="none" stroke="#56d873" stroke-width="2" d="M535,-108C535,-108 413,-108 413,-108 407,-108 401,-102 401,-96 401,-96 401,-84 401,-84 401,-78 407,-72 413,-72 413,-72 535,-72 535,-72 541,-72 547,-78 547,-84 547,-84 547,-96 547,-96 547,-102 541,-108 535,-108"/>
<text text-anchor="middle" x="474" y="-87.5" font-family="sans" font-size="10.00">viz_loops_overlap_borders</text>
</g>
<!-- 23&#45;&gt;38 -->
<g id="edge60" class="edge">
<title>23&#45;&gt;38</title>
<path fill="none" stroke="grey" stroke-width="2" d="M465.24,-215.91C464.62,-197.97 464.13,-168.96 466,-144 466.64,-135.52 467.84,-126.34 469.12,-118.04"/>
<polygon fill="grey" stroke="grey" stroke-width="2" points="472.58,-118.55 470.75,-108.11 465.68,-117.41 472.58,-118.55"/>
</g>
<!-- 23&#45;&gt;39 -->
<g id="edge63" class="edge">
<title>23&#45;&gt;39</title>
<path fill="none" stroke="grey" stroke-width="2" d="M486.52,-215.7C496.87,-206.97 509.59,-196.24 520.84,-186.75"/>
<polygon fill="grey" stroke="grey" stroke-width="2" points="523.33,-189.23 528.72,-180.1 518.82,-183.88 523.33,-189.23"/>
</g>
<!-- 24&#45;&gt;23 -->
<g id="edge39" class="edge">
<title>24&#45;&gt;23</title>
<path fill="none" stroke="grey" stroke-width="2" d="M359.49,-287.88C378.44,-278.47 402.13,-266.71 422.36,-256.67"/>
<polygon fill="grey" stroke="grey" stroke-width="2" points="423.97,-259.77 431.37,-252.19 420.86,-253.5 423.97,-259.77"/>
</g>
<!-- 30 -->
<g id="node31" class="node">
<title>30</title>
<path fill="none" stroke="#d85e56" stroke-width="2" d="M156,-252C156,-252 40,-252 40,-252 34,-252 28,-246 28,-240 28,-240 28,-228 28,-228 28,-222 34,-216 40,-216 40,-216 156,-216 156,-216 162,-216 168,-222 168,-228 168,-228 168,-240 168,-240 168,-246 162,-252 156,-252"/>
<text text-anchor="middle" x="98" y="-231.5" font-family="sans" font-size="10.00">perc_thresh_diff_patterns</text>
</g>
<!-- 24&#45;&gt;30 -->
<g id="edge48" class="edge">
<title>24&#45;&gt;30</title>
<path fill="none" stroke="grey" stroke-width="2" d="M278.79,-290.75C245.47,-280.48 200.04,-266.47 163.06,-255.06"/>
<polygon fill="grey" stroke="grey" stroke-width="2" points="163.95,-251.67 153.36,-252.07 161.89,-258.36 163.95,-251.67"/>
</g>
<!-- 31 -->
<g id="node32" class="node">
<title>31</title>
<path fill="none" stroke="#5673d8" stroke-width="2" d="M377.5,-252C377.5,-252 274.5,-252 274.5,-252 268.5,-252 262.5,-246 262.5,-240 262.5,-240 262.5,-228 262.5,-228 262.5,-222 268.5,-216 274.5,-216 274.5,-216 377.5,-216 377.5,-216 383.5,-216 389.5,-222 389.5,-228 389.5,-228 389.5,-240 389.5,-240 389.5,-246 383.5,-252 377.5,-252"/>
<text text-anchor="middle" x="326" y="-231.5" font-family="sans" font-size="10.00">border_change_to_bed</text>
</g>
<!-- 24&#45;&gt;31 -->
<g id="edge49" class="edge">
<title>24&#45;&gt;31</title>
<path fill="none" stroke="grey" stroke-width="2" d="M325.25,-287.7C325.36,-279.98 325.49,-270.71 325.61,-262.11"/>
<polygon fill="grey" stroke="grey" stroke-width="2" points="329.11,-262.15 325.76,-252.1 322.11,-262.05 329.11,-262.15"/>
</g>
<!-- 37 -->
<g id="node38" class="node">
<title>37</title>
<path fill="none" stroke="#56d8a9" stroke-width="2" d="M241.5,-180C241.5,-180 116.5,-180 116.5,-180 110.5,-180 104.5,-174 104.5,-168 104.5,-168 104.5,-156 104.5,-156 104.5,-150 110.5,-144 116.5,-144 116.5,-144 241.5,-144 241.5,-144 247.5,-144 253.5,-150 253.5,-156 253.5,-156 253.5,-168 253.5,-168 253.5,-174 247.5,-180 241.5,-180"/>
<text text-anchor="middle" x="179" y="-159.5" font-family="sans" font-size="10.00">pattern_change_cutoff_hist</text>
</g>
<!-- 24&#45;&gt;37 -->
<g id="edge59" class="edge">
<title>24&#45;&gt;37</title>
<path fill="none" stroke="grey" stroke-width="2" d="M298.48,-287.79C284.34,-278.05 267.01,-265.2 253,-252 232.08,-232.28 211.43,-206.8 197.28,-188.16"/>
<polygon fill="grey" stroke="grey" stroke-width="2" points="200.05,-186.03 191.26,-180.12 194.45,-190.22 200.05,-186.03"/>
</g>
<!-- 25 -->
<g id="node26" class="node">
<title>25</title>
<path fill="none" stroke="#d87d56" stroke-width="2" d="M362,-396C362,-396 288,-396 288,-396 282,-396 276,-390 276,-384 276,-384 276,-372 276,-372 276,-366 282,-360 288,-360 288,-360 362,-360 362,-360 368,-360 374,-366 374,-372 374,-372 374,-384 374,-384 374,-390 368,-396 362,-396"/>
<text text-anchor="middle" x="325" y="-375.5" font-family="sans" font-size="10.00">pseudo_rep_cool</text>
</g>
<!-- 25&#45;&gt;24 -->
<g id="edge40" class="edge">
<title>25&#45;&gt;24</title>
<path fill="none" stroke="grey" stroke-width="2" d="M325,-359.7C325,-351.98 325,-342.71 325,-334.11"/>
<polygon fill="grey" stroke="grey" stroke-width="2" points="328.5,-334.1 325,-324.1 321.5,-334.1 328.5,-334.1"/>
</g>
<!-- 26&#45;&gt;25 -->
<g id="edge42" class="edge">
<title>26&#45;&gt;25</title>
<path fill="none" stroke="grey" stroke-width="2" d="M309.94,-431.7C312.17,-423.9 314.85,-414.51 317.33,-405.83"/>
<polygon fill="grey" stroke="grey" stroke-width="2" points="320.73,-406.68 320.11,-396.1 314,-404.76 320.73,-406.68"/>
</g>
<!-- 27 -->
<g id="node28" class="node">
<title>27</title>
<path fill="none" stroke="#8fd856" stroke-width="2" d="M348,-540C348,-540 256,-540 256,-540 250,-540 244,-534 244,-528 244,-528 244,-516 244,-516 244,-510 250,-504 256,-504 256,-504 348,-504 348,-504 354,-504 360,-510 360,-516 360,-516 360,-528 360,-528 360,-534 354,-540 348,-540"/>
<text text-anchor="middle" x="302" y="-519.5" font-family="sans" font-size="10.00">get_lowest_contacts</text>
</g>
<!-- 27&#45;&gt;26 -->
<g id="edge43" class="edge">
<title>27&#45;&gt;26</title>
<path fill="none" stroke="grey" stroke-width="2" d="M302.74,-503.7C303.07,-495.98 303.47,-486.71 303.84,-478.11"/>
<polygon fill="grey" stroke="grey" stroke-width="2" points="307.34,-478.25 304.27,-468.1 300.34,-477.95 307.34,-478.25"/>
</g>
<!-- 28&#45;&gt;27 -->
<g id="edge45" class="edge">
<title>28&#45;&gt;27</title>
<path fill="none" stroke="grey" stroke-width="2" d="M300.49,-575.7C300.71,-567.98 300.98,-558.71 301.23,-550.11"/>
<polygon fill="grey" stroke="grey" stroke-width="2" points="304.72,-550.2 301.51,-540.1 297.73,-550 304.72,-550.2"/>
</g>
<!-- 29&#45;&gt;22 -->
<g id="edge36" class="edge">
<title>29&#45;&gt;22</title>
<path fill="none" stroke="grey" stroke-width="2" d="M120,-863.95C120,-837.29 120,-784.11 120,-739 120,-739 120,-739 120,-377 120,-285.27 219.45,-217.7 280.15,-185"/>
<polygon fill="grey" stroke="grey" stroke-width="2" points="281.96,-188 289.17,-180.24 278.69,-181.81 281.96,-188"/>
</g>
<!-- 30&#45;&gt;21 -->
<g id="edge33" class="edge">
<title>30&#45;&gt;21</title>
<path fill="none" stroke="grey" stroke-width="2" d="M95.6,-215.84C93.51,-197.84 91.34,-168.78 95,-144 96.28,-135.35 98.67,-126.15 101.22,-117.89"/>
<polygon fill="grey" stroke="grey" stroke-width="2" points="104.55,-118.96 104.35,-108.37 97.9,-116.78 104.55,-118.96"/>
</g>
<!-- 30&#45;&gt;37 -->
<g id="edge58" class="edge">
<title>30&#45;&gt;37</title>
<path fill="none" stroke="grey" stroke-width="2" d="M118.02,-215.7C128.13,-206.97 140.54,-196.24 151.52,-186.75"/>
<polygon fill="grey" stroke="grey" stroke-width="2" points="153.93,-189.29 159.21,-180.1 149.35,-183.99 153.93,-189.29"/>
</g>
<!-- 31&#45;&gt;22 -->
<g id="edge38" class="edge">
<title>31&#45;&gt;22</title>
<path fill="none" stroke="grey" stroke-width="2" d="M326,-215.7C326,-207.98 326,-198.71 326,-190.11"/>
<polygon fill="grey" stroke="grey" stroke-width="2" points="329.5,-190.1 326,-180.1 322.5,-190.1 329.5,-190.1"/>
</g>
<!-- 31&#45;&gt;38 -->
<g id="edge62" class="edge">
<title>31&#45;&gt;38</title>
<path fill="none" stroke="grey" stroke-width="2" d="M347.5,-215.89C359.91,-205.77 375.66,-192.52 389,-180 411.02,-159.33 434.64,-134.35 451.37,-116.12"/>
<polygon fill="grey" stroke="grey" stroke-width="2" points="454.39,-118.01 458.55,-108.26 449.22,-113.29 454.39,-118.01"/>
</g>
<!-- 31&#45;&gt;39 -->
<g id="edge65" class="edge">
<title>31&#45;&gt;39</title>
<path fill="none" stroke="grey" stroke-width="2" d="M380.27,-215.97C411.83,-206.06 451.79,-193.51 484.9,-183.12"/>
<polygon fill="grey" stroke="grey" stroke-width="2" points="486,-186.45 494.49,-180.11 483.9,-179.77 486,-186.45"/>
</g>
<!-- 32 -->
<g id="node33" class="node">
<title>32</title>
<path fill="none" stroke="#9fd856" stroke-width="2" d="M769,-324C769,-324 709,-324 709,-324 703,-324 697,-318 697,-312 697,-312 697,-300 697,-300 697,-294 703,-288 709,-288 709,-288 769,-288 769,-288 775,-288 781,-294 781,-300 781,-300 781,-312 781,-312 781,-318 775,-324 769,-324"/>
<text text-anchor="middle" x="739" y="-303.5" font-family="sans" font-size="10.00">hicrep_matrix</text>
</g>
<!-- 32&#45;&gt;0 -->
<g id="edge5" class="edge">
<title>32&#45;&gt;0</title>
<path fill="none" stroke="grey" stroke-width="2" d="M741.93,-287.89C747.95,-247.48 758.12,-144.08 719,-72 711.58,-58.32 698.96,-47.01 686.6,-38.4"/>
<polygon fill="grey" stroke="grey" stroke-width="2" points="688.43,-35.41 678.15,-32.87 684.6,-41.27 688.43,-35.41"/>
</g>
<!-- 33&#45;&gt;32 -->
<g id="edge50" class="edge">
<title>33&#45;&gt;32</title>
<path fill="none" stroke="grey" stroke-width="2" d="M739.75,-359.7C739.64,-351.98 739.51,-342.71 739.39,-334.11"/>
<polygon fill="grey" stroke="grey" stroke-width="2" points="742.89,-334.05 739.24,-324.1 735.89,-334.15 742.89,-334.05"/>
</g>
<!-- 34&#45;&gt;33 -->
<g id="edge51" class="edge">
<title>34&#45;&gt;33</title>
<path fill="none" stroke="grey" stroke-width="2" d="M798.72,-431.7C789.08,-423.05 777.27,-412.45 766.77,-403.03"/>
<polygon fill="grey" stroke="grey" stroke-width="2" points="768.84,-400.18 759.06,-396.1 764.16,-405.39 768.84,-400.18"/>
</g>
<!-- 35 -->
<g id="node36" class="node">
<title>35</title>
<path fill="none" stroke="#d85656" stroke-width="2" d="M771,-612C771,-612 691,-612 691,-612 685,-612 679,-606 679,-600 679,-600 679,-588 679,-588 679,-582 685,-576 691,-576 691,-576 771,-576 771,-576 777,-576 783,-582 783,-588 783,-588 783,-600 783,-600 783,-606 777,-612 771,-612"/>
<text text-anchor="middle" x="731" y="-591.5" font-family="sans" font-size="10.00">plot_distance_law</text>
</g>
<!-- 35&#45;&gt;0 -->
<g id="edge1" class="edge">
<title>35&#45;&gt;0</title>
<path fill="none" stroke="grey" stroke-width="2" d="M776.56,-575.9C824.47,-554.61 893,-513.27 893,-451 893,-451 893,-451 893,-161 893,-67.37 756.57,-34.29 688.58,-23.61"/>
<polygon fill="grey" stroke="grey" stroke-width="2" points="688.7,-20.09 678.29,-22.09 687.67,-27.02 688.7,-20.09"/>
</g>
<!-- 36&#45;&gt;35 -->
<g id="edge55" class="edge">
<title>36&#45;&gt;35</title>
<path fill="none" stroke="grey" stroke-width="2" d="M549.4,-647.97C585.7,-637.38 632.32,-623.78 669.23,-613.01"/>
<polygon fill="grey" stroke="grey" stroke-width="2" points="670.26,-616.36 678.88,-610.2 668.3,-609.64 670.26,-616.36"/>
</g>
<!-- 37&#45;&gt;0 -->
<g id="edge4" class="edge">
<title>37&#45;&gt;0</title>
<path fill="none" stroke="grey" stroke-width="2" d="M214.02,-143.88C255.6,-124.15 327.46,-91.88 392,-72 469.19,-48.22 562.65,-32.09 613.53,-24.33"/>
<polygon fill="grey" stroke="grey" stroke-width="2" points="614.35,-27.74 623.72,-22.8 613.31,-20.82 614.35,-27.74"/>
</g>
<!-- 38&#45;&gt;0 -->
<g id="edge2" class="edge">
<title>38&#45;&gt;0</title>
<path fill="none" stroke="grey" stroke-width="2" d="M517.3,-71.88C547.05,-60.11 586.12,-44.66 614.34,-33.5"/>
<polygon fill="grey" stroke="grey" stroke-width="2" points="615.82,-36.68 623.83,-29.74 613.25,-30.17 615.82,-36.68"/>
</g>
<!-- 39&#45;&gt;38 -->
<g id="edge61" class="edge">
<title>39&#45;&gt;38</title>
<path fill="none" stroke="grey" stroke-width="2" d="M530.46,-143.7C521.2,-135.05 509.84,-124.45 499.74,-115.03"/>
<polygon fill="grey" stroke="grey" stroke-width="2" points="502.02,-112.37 492.33,-108.1 497.25,-117.49 502.02,-112.37"/>
</g>
<!-- 40 -->
<g id="node41" class="node">
<title>40</title>
<path fill="none" stroke="#59d856" stroke-width="2" d="M1013,-108C1013,-108 933,-108 933,-108 927,-108 921,-102 921,-96 921,-96 921,-84 921,-84 921,-78 927,-72 933,-72 933,-72 1013,-72 1013,-72 1019,-72 1025,-78 1025,-84 1025,-84 1025,-96 1025,-96 1025,-102 1019,-108 1013,-108"/>
<text text-anchor="middle" x="973" y="-87.5" font-family="sans" font-size="10.00">get_expr_vs_time</text>
</g>
<!-- 40&#45;&gt;0 -->
<g id="edge9" class="edge">
<title>40&#45;&gt;0</title>
<path fill="none" stroke="grey" stroke-width="2" d="M920.82,-75.31C916.15,-74.16 911.5,-73.04 907,-72 829.61,-54.03 738.36,-35.86 688.39,-26.16"/>
<polygon fill="grey" stroke="grey" stroke-width="2" points="688.86,-22.68 678.37,-24.22 687.53,-29.56 688.86,-22.68"/>
</g>
<!-- 41 -->
<g id="node42" class="node">
<title>41</title>
<path fill="none" stroke="#d8cb56" stroke-width="2" d="M1138.5,-108C1138.5,-108 1055.5,-108 1055.5,-108 1049.5,-108 1043.5,-102 1043.5,-96 1043.5,-96 1043.5,-84 1043.5,-84 1043.5,-78 1049.5,-72 1055.5,-72 1055.5,-72 1138.5,-72 1138.5,-72 1144.5,-72 1150.5,-78 1150.5,-84 1150.5,-84 1150.5,-96 1150.5,-96 1150.5,-102 1144.5,-108 1138.5,-108"/>
<text text-anchor="middle" x="1097" y="-87.5" font-family="sans" font-size="10.00">convert_identifiers</text>
</g>
<!-- 41&#45;&gt;0 -->
<g id="edge7" class="edge">
<title>41&#45;&gt;0</title>
<path fill="none" stroke="grey" stroke-width="2" d="M1043.49,-74.07C1040.29,-73.33 1037.11,-72.63 1034,-72 908.49,-46.49 757.33,-29.56 688.46,-22.6"/>
<polygon fill="grey" stroke="grey" stroke-width="2" points="688.43,-19.08 678.13,-21.57 687.73,-26.04 688.43,-19.08"/>
</g>
<!-- 42 -->
<g id="node43" class="node">
<title>42</title>
<path fill="none" stroke="#56d892" stroke-width="2" d="M1218.5,-180C1218.5,-180 1109.5,-180 1109.5,-180 1103.5,-180 1097.5,-174 1097.5,-168 1097.5,-168 1097.5,-156 1097.5,-156 1097.5,-150 1103.5,-144 1109.5,-144 1109.5,-144 1218.5,-144 1218.5,-144 1224.5,-144 1230.5,-150 1230.5,-156 1230.5,-156 1230.5,-168 1230.5,-168 1230.5,-174 1224.5,-180 1218.5,-180"/>
<text text-anchor="middle" x="1164" y="-159.5" font-family="sans" font-size="10.00">map_neff_c3_identifiers</text>
</g>
<!-- 42&#45;&gt;41 -->
<g id="edge67" class="edge">
<title>42&#45;&gt;41</title>
<path fill="none" stroke="grey" stroke-width="2" d="M1147.44,-143.7C1139.32,-135.22 1129.41,-124.86 1120.53,-115.58"/>
<polygon fill="grey" stroke="grey" stroke-width="2" points="1122.81,-112.91 1113.37,-108.1 1117.76,-117.75 1122.81,-112.91"/>
</g>
<!-- 43 -->
<g id="node44" class="node">
<title>43</title>
<path fill="none" stroke="#d8a456" stroke-width="2" d="M1209,-252C1209,-252 1119,-252 1119,-252 1113,-252 1107,-246 1107,-240 1107,-240 1107,-228 1107,-228 1107,-222 1113,-216 1119,-216 1119,-216 1209,-216 1209,-216 1215,-216 1221,-222 1221,-228 1221,-228 1221,-240 1221,-240 1221,-246 1215,-252 1209,-252"/>
<text text-anchor="middle" x="1164" y="-231.5" font-family="sans" font-size="10.00">liftover_annotations</text>
</g>
<!-- 43&#45;&gt;42 -->
<g id="edge68" class="edge">
<title>43&#45;&gt;42</title>
<path fill="none" stroke="grey" stroke-width="2" d="M1164,-215.7C1164,-207.98 1164,-198.71 1164,-190.11"/>
<polygon fill="grey" stroke="grey" stroke-width="2" points="1167.5,-190.1 1164,-180.1 1160.5,-190.1 1167.5,-190.1"/>
</g>
<!-- 44 -->
<g id="node45" class="node">
<title>44</title>
<path fill="none" stroke="#d89556" stroke-width="2" d="M1067,-180C1067,-180 997,-180 997,-180 991,-180 985,-174 985,-168 985,-168 985,-156 985,-156 985,-150 991,-144 997,-144 997,-144 1067,-144 1067,-144 1073,-144 1079,-150 1079,-156 1079,-156 1079,-168 1079,-168 1079,-174 1073,-180 1067,-180"/>
<text text-anchor="middle" x="1032" y="-159.5" font-family="sans" font-size="10.00">xls_to_diff_expr</text>
</g>
<!-- 44&#45;&gt;41 -->
<g id="edge66" class="edge">
<title>44&#45;&gt;41</title>
<path fill="none" stroke="grey" stroke-width="2" d="M1048.07,-143.7C1055.94,-135.22 1065.56,-124.86 1074.17,-115.58"/>
<polygon fill="grey" stroke="grey" stroke-width="2" points="1076.88,-117.81 1081.12,-108.1 1071.75,-113.05 1076.88,-117.81"/>
</g>
</g>
</svg>
